<svg width="102" height="23" viewBox="0 0 102 23" fill="none" xmlns="http://www.w3.org/2000/svg">
<g clip-path="url(#clip0_211_7)">
<path d="M15.8181 0.536987L9.25498 14.1435H6.68092L0 0.536987H1.78507L7.97331 12.7124L14.1615 0.536987H15.8181Z" fill="white"/>
<path d="M47.7743 14.1435H36.4153V0.536987H37.9397V12.7112H47.7743V14.1435Z" fill="white"/>
<path d="M65.5906 9.74466C65.5906 11.1606 64.9063 12.3069 63.5377 13.1834C62.1442 14.098 60.6424 14.5547 58.317 14.5547C55.9917 14.5547 54.4755 14.098 53.0582 13.1834C51.6896 12.2941 51.0054 11.1478 51.0054 9.74466V0.536987H52.531V9.43901C52.531 10.5046 53.2319 11.5581 54.159 12.1215C55.086 12.6848 56.5498 13.0876 58.317 13.0876C60.0842 13.0876 61.661 12.686 62.575 12.1215C63.0269 11.8362 63.4003 11.441 63.6606 10.9722C63.921 10.5034 64.0601 9.97615 64.0649 9.43901V0.536987H65.5906V9.74466Z" fill="white"/>
<path d="M83.8981 14.1435H71.0635V0.536987H83.3733V1.84706H72.5927V6.42093H79.9079V7.73101H72.5927V12.7112H83.8981V14.1435Z" fill="white"/>
<path d="M99.8138 3.13194C97.811 2.10594 97.2635 1.69362 94.6883 1.63129C93.309 1.60013 92.2058 1.87101 91.4751 2.19943C90.4041 2.68606 90.0173 3.45676 90.0173 4.03209C90.0173 4.63139 90.3006 5.40449 91.3121 5.71014C92.2034 5.98402 93.1208 6.16241 94.0492 6.24232C98.2275 6.60909 99.4592 6.66183 100.743 7.58475C101.123 7.84726 101.435 8.19776 101.652 8.60678C101.869 9.01581 101.986 9.47139 101.992 9.93522C102.043 11.3735 101.476 12.4906 100.207 13.2793C98.9367 14.068 97.9454 14.4635 95.5737 14.4635C92.1285 14.4635 90.0649 13.6245 88.0085 12.1706L88.8832 11.2549C91.2038 12.5206 92.9163 13.0899 95.3547 13.0899C96.9339 13.0899 97.9204 12.8706 98.7916 12.4319C99.6246 12.0064 100.322 11.1794 100.306 10.1833C100.295 9.03866 99.333 8.03063 94.2515 7.8844C92.0202 7.81968 90.8777 7.33305 89.9816 6.88237C88.9415 6.35259 88.3608 5.29902 88.362 4.33294C88.362 3.05523 88.838 2.04721 90.0281 1.30767C91.2181 0.568129 92.6545 0.166597 94.818 0.198959C97.8764 0.245704 99.546 1.37359 100.863 2.16587L99.8138 3.13194Z" fill="white"/>
<path d="M4.22467 21.7762V22.0339H1.92193C1.02622 22.0339 0.578369 21.5829 0.578369 20.6807V19.5205C0.578369 18.6175 1.02622 18.1664 1.92193 18.1672H4.16517V18.4249C4.17014 18.4599 4.16695 18.4956 4.15585 18.5292C4.14475 18.5627 4.12605 18.5932 4.10122 18.6182C4.07639 18.6432 4.04612 18.6621 4.01281 18.6733C3.9795 18.6844 3.94406 18.6876 3.90931 18.6826H2.04927C1.49391 18.6826 1.21623 18.9623 1.21623 19.5217V20.6819C1.21623 21.2413 1.49391 21.5209 2.04927 21.5209H3.96881C4.00334 21.516 4.03854 21.5192 4.07164 21.5302C4.10475 21.5413 4.13486 21.5599 4.15964 21.5846C4.18442 21.6094 4.20318 21.6395 4.21446 21.6728C4.22574 21.706 4.22923 21.7414 4.22467 21.7762Z" fill="white"/>
<path d="M8.53736 20.0358V20.9384C8.53736 21.6679 8.17479 22.0331 7.44966 22.0339H6.29888C5.57296 22.0339 5.21039 21.6687 5.21118 20.9384V20.0358C5.21118 19.3055 5.57375 18.9403 6.29888 18.9403H7.44966C8.17479 18.9387 8.53736 19.3039 8.53736 20.0358ZM7.89831 20.0358C7.89831 19.6487 7.70552 19.4557 7.32232 19.4557H6.42622C6.04223 19.4557 5.85024 19.6491 5.85024 20.0358V20.9384C5.85024 21.3243 6.04223 21.5173 6.42622 21.5173H7.32232C7.70552 21.5173 7.89831 21.3243 7.89831 20.9384V20.0358Z" fill="white"/>
<path d="M12.8882 20.0358V22.0339H12.5038C12.4691 22.0389 12.4336 22.0357 12.4003 22.0245C12.367 22.0133 12.3367 21.9945 12.3119 21.9695C12.2871 21.9445 12.2684 21.914 12.2573 21.8804C12.2462 21.8469 12.243 21.8112 12.248 21.7762V20.0358C12.248 19.6491 12.056 19.4557 11.672 19.4557H10.9687C10.8245 19.4537 10.6831 19.4956 10.5631 19.5761C10.4431 19.6565 10.3501 19.7717 10.2963 19.9064V21.7762C10.3013 21.8112 10.2981 21.8469 10.287 21.8804C10.2759 21.914 10.2572 21.9445 10.2323 21.9695C10.2075 21.9945 10.1772 22.0133 10.1439 22.0245C10.1106 22.0357 10.0752 22.0389 10.0404 22.0339H9.65723V18.9379H10.0404C10.0752 18.9329 10.1106 18.9361 10.1439 18.9473C10.1772 18.9585 10.2075 18.9773 10.2323 19.0023C10.2572 19.0273 10.2759 19.0578 10.287 19.0914C10.2981 19.1249 10.3013 19.1606 10.2963 19.1956V19.4209C10.4569 19.0985 10.6961 18.9415 11.0103 18.9415H11.7945C12.5236 18.9391 12.8882 19.3039 12.8882 20.0358Z" fill="white"/>
<path d="M14.5661 19.8429C14.5661 20.1002 14.6942 20.2288 14.9504 20.2288H16.2297C16.8271 20.2288 17.1258 20.5297 17.1258 21.1314C17.1258 21.7331 16.8271 22.0339 16.2297 22.0339H13.9913V21.7762C13.9861 21.7411 13.9891 21.7053 14.0001 21.6716C14.0111 21.6379 14.0298 21.6072 14.0547 21.5821C14.0795 21.5569 14.1099 21.538 14.1433 21.5267C14.1767 21.5155 14.2123 21.5123 14.2471 21.5173H16.1024C16.3587 21.5173 16.4864 21.3887 16.4856 21.1314C16.4848 20.8741 16.3571 20.745 16.1024 20.7442H14.8219C14.2261 20.7442 13.9278 20.4438 13.927 19.8429C13.9262 19.242 14.2245 18.9411 14.8219 18.9403H16.9973V19.198C17.0023 19.233 16.9991 19.2687 16.988 19.3023C16.9769 19.3358 16.9582 19.3663 16.9334 19.3913C16.9085 19.4163 16.8783 19.4351 16.845 19.4463C16.8117 19.4575 16.7762 19.4607 16.7415 19.4557H14.9504C14.695 19.4557 14.5669 19.5848 14.5661 19.8429Z" fill="white"/>
<path d="M21.3959 18.9379V22.0315H21.0115C20.9767 22.0365 20.9413 22.0333 20.908 22.0221C20.8747 22.0109 20.8444 21.9921 20.8196 21.9671C20.7948 21.9421 20.7761 21.9116 20.765 21.8781C20.7539 21.8445 20.7507 21.8088 20.7556 21.7738V21.5473C20.5962 21.8697 20.3558 22.0267 20.0416 22.0267H19.2574C18.5322 22.0267 18.1697 21.6615 18.1697 20.9312V18.9379H18.5541C18.5888 18.9329 18.6243 18.9361 18.6576 18.9473C18.6909 18.9585 18.7211 18.9773 18.746 19.0023C18.7708 19.0273 18.7895 19.0578 18.8006 19.0914C18.8117 19.1249 18.8149 19.1606 18.8099 19.1956V20.936C18.8099 21.3219 19.0019 21.5149 19.3859 21.5149H20.0892C20.2332 21.5167 20.3743 21.4746 20.4941 21.3942C20.6138 21.3137 20.7067 21.1987 20.7604 21.0642V19.198C20.7554 19.163 20.7586 19.1273 20.7697 19.0938C20.7808 19.0602 20.7995 19.0297 20.8244 19.0047C20.8492 18.9797 20.8794 18.9609 20.9128 18.9497C20.9461 18.9385 20.9815 18.9353 21.0163 18.9403L21.3959 18.9379Z" fill="white"/>
<path d="M27.878 20.0358V22.0339H27.49C27.4553 22.0389 27.4198 22.0357 27.3865 22.0245C27.3532 22.0133 27.3229 21.9945 27.2981 21.9695C27.2733 21.9445 27.2546 21.914 27.2435 21.8804C27.2324 21.8469 27.2292 21.8112 27.2342 21.7762V20.0358C27.2342 19.6487 27.0414 19.4557 26.6582 19.4557H26.2107C26.0666 19.4537 25.9252 19.4956 25.8052 19.5761C25.6852 19.6565 25.5922 19.7717 25.5383 19.9064V22.0339H25.1552C25.1204 22.0389 25.085 22.0357 25.0516 22.0245C25.0183 22.0133 24.9881 21.9945 24.9632 21.9695C24.9384 21.9445 24.9197 21.914 24.9086 21.8804C24.8975 21.8469 24.8943 21.8112 24.8993 21.7762V20.0358C24.8993 19.6487 24.7065 19.4557 24.3233 19.4557H23.8747C23.7307 19.4539 23.5896 19.496 23.4698 19.5764C23.3501 19.6569 23.2572 19.7719 23.2035 19.9064V21.7762C23.2084 21.8112 23.2053 21.8469 23.1942 21.8804C23.1831 21.914 23.1644 21.9445 23.1395 21.9695C23.1147 21.9945 23.0844 22.0133 23.0511 22.0245C23.0178 22.0357 22.9824 22.0389 22.9476 22.0339H22.5632V18.9379H22.9476C22.9824 18.9329 23.0178 18.9361 23.0511 18.9473C23.0844 18.9585 23.1147 18.9773 23.1395 19.0023C23.1644 19.0273 23.1831 19.0578 23.1942 19.0914C23.2053 19.1249 23.2084 19.1606 23.2035 19.1956V19.4209C23.3621 19.1013 23.6002 18.9415 23.9175 18.9415H24.4447C24.9885 18.9415 25.3301 19.1453 25.4634 19.5588L25.5324 19.4245C25.6911 19.1049 25.9311 18.9451 26.2524 18.9451H26.7796C27.5126 18.9403 27.8788 19.3039 27.878 20.0358Z" fill="white"/>
<path d="M29.6107 20.7442V20.9384C29.6107 21.3243 29.8027 21.5173 30.1867 21.5173H31.7861C31.8209 21.5125 31.8564 21.5159 31.8897 21.5272C31.923 21.5386 31.9532 21.5575 31.978 21.5826C32.0028 21.6077 32.0215 21.6383 32.0326 21.6718C32.0437 21.7054 32.0469 21.7412 32.042 21.7762V22.0339H30.0582C29.333 22.0339 28.9705 21.6687 28.9705 20.9384V20.0358C28.9705 19.3055 29.333 18.9403 30.0582 18.9403H31.1459C31.8702 18.9403 32.2328 19.3055 32.2336 20.0358V20.7442H29.6107ZM29.6107 20.2288H31.5933V20.0358C31.5933 19.6491 31.4017 19.4557 31.0185 19.4557H30.1855C29.8015 19.4557 29.6095 19.6491 29.6095 20.0358L29.6107 20.2288Z" fill="white"/>
<path d="M35.4109 18.9379V19.1956C35.4159 19.2306 35.4127 19.2663 35.4016 19.2999C35.3905 19.3334 35.3718 19.3639 35.347 19.3889C35.3222 19.4139 35.2919 19.4327 35.2586 19.4439C35.2253 19.4551 35.1898 19.4583 35.1551 19.4533H34.6112C34.4671 19.4513 34.3257 19.4933 34.2057 19.5737C34.0857 19.6541 33.9927 19.7693 33.9389 19.904V21.7738C33.9438 21.8088 33.9406 21.8445 33.9295 21.8781C33.9184 21.9116 33.8997 21.9421 33.8749 21.9671C33.8501 21.9921 33.8198 22.0109 33.7865 22.0221C33.7532 22.0333 33.7178 22.0365 33.683 22.0315H33.2998V18.9379H33.6782C33.713 18.9329 33.7484 18.9361 33.7817 18.9473C33.8151 18.9585 33.8453 18.9773 33.8702 19.0023C33.895 19.0273 33.9137 19.0578 33.9248 19.0914C33.9359 19.1249 33.9391 19.1606 33.9341 19.1956V19.4209C34.0948 19.0985 34.334 18.9415 34.6541 18.9415L35.4109 18.9379Z" fill="white"/>
<path d="M39.3561 20.7442V20.9384C39.3561 21.3243 39.5477 21.5173 39.9309 21.5173H41.5327C41.5675 21.5123 41.6031 21.5155 41.6365 21.5267C41.6699 21.538 41.7003 21.5569 41.7251 21.5821C41.75 21.6072 41.7687 21.6379 41.7797 21.6716C41.7907 21.7053 41.7937 21.7411 41.7885 21.7762V22.0339H39.8035C39.0784 22.0339 38.7158 21.6687 38.7158 20.9384V20.0358C38.7158 19.3055 39.0784 18.9403 39.8035 18.9403H40.8912C41.6156 18.9403 41.9781 19.3055 41.9789 20.0358V20.7442H39.3561ZM39.3561 20.2288H41.3387V20.0358C41.3387 19.6491 41.1467 19.4557 40.7627 19.4557H39.9297C39.5465 19.4557 39.3549 19.6491 39.3549 20.0358L39.3561 20.2288Z" fill="white"/>
<path d="M44.8946 20.4865L46.1846 22.0339H45.6883C45.5959 22.0293 45.5058 22.0037 45.4246 21.9591C45.3434 21.9145 45.2733 21.852 45.2194 21.7762L44.5209 20.9372L43.8223 21.7762C43.7686 21.852 43.6984 21.9146 43.6172 21.9592C43.536 22.0039 43.4459 22.0294 43.3535 22.0339H42.8584L44.1425 20.4865L42.8584 18.9379H43.3535C43.4459 18.9425 43.536 18.968 43.6172 19.0126C43.6984 19.0573 43.7686 19.1198 43.8223 19.1956L44.5209 20.0346L45.2194 19.1956C45.2733 19.1199 45.3434 19.0574 45.4246 19.0127C45.5058 18.9681 45.5959 18.9425 45.6883 18.9379H46.1846L44.8946 20.4865Z" fill="white"/>
<path d="M50.4331 20.0358V20.9384C50.4331 21.6679 50.0705 22.0331 49.3454 22.0339H48.5302C48.2101 22.0339 47.9709 21.8721 47.8102 21.5545V22.7531C47.8152 22.7881 47.812 22.8238 47.8009 22.8573C47.7898 22.8909 47.7711 22.9213 47.7463 22.9464C47.7214 22.9714 47.6912 22.9902 47.6578 23.0014C47.6245 23.0126 47.5891 23.0158 47.5543 23.0108H47.1711V18.9379H47.5543C47.5891 18.9329 47.6245 18.9361 47.6578 18.9473C47.6912 18.9585 47.7214 18.9773 47.7463 19.0023C47.7711 19.0273 47.7898 19.0578 47.8009 19.0914C47.812 19.1249 47.8152 19.1606 47.8102 19.1956V19.4209C47.9709 19.0985 48.2101 18.9415 48.5302 18.9415H49.3454C50.0713 18.9391 50.4339 19.3039 50.4331 20.0358ZM49.794 20.0358C49.794 19.6487 49.6012 19.4557 49.218 19.4557H48.4826C48.3384 19.4537 48.1971 19.4956 48.077 19.5761C47.957 19.6565 47.864 19.7717 47.8102 19.9064V21.0666C47.864 21.2013 47.957 21.3165 48.077 21.3969C48.1971 21.4774 48.3384 21.5193 48.4826 21.5173H49.218C49.6012 21.5173 49.794 21.3243 49.794 20.9384V20.0358Z" fill="white"/>
<path d="M52.1395 20.7442V20.9384C52.1395 21.3243 52.3311 21.5173 52.7143 21.5173H54.3137C54.3486 21.5123 54.3842 21.5155 54.4177 21.5268C54.4511 21.538 54.4815 21.557 54.5065 21.5821C54.5314 21.6072 54.5502 21.6378 54.5614 21.6715C54.5725 21.7052 54.5757 21.741 54.5708 21.7762V22.0339H52.587C51.8626 22.0339 51.5001 21.6687 51.4993 20.9384V20.0358C51.4993 19.3055 51.8618 18.9403 52.587 18.9403H53.6711C54.3962 18.9403 54.7588 19.3055 54.7588 20.0358V20.7442H52.1395ZM52.1395 20.2288H54.1221V20.0358C54.1221 19.6491 53.9301 19.4557 53.5461 19.4557H52.7131C52.3299 19.4557 52.1383 19.6491 52.1383 20.0358L52.1395 20.2288Z" fill="white"/>
<path d="M57.9398 18.9379V19.1956C57.9447 19.2306 57.9415 19.2663 57.9304 19.2999C57.9193 19.3334 57.9006 19.3639 57.8758 19.3889C57.851 19.4139 57.8207 19.4327 57.7874 19.4439C57.7541 19.4551 57.7187 19.4583 57.6839 19.4533H57.14C56.9959 19.4513 56.8545 19.4933 56.7345 19.5737C56.6145 19.6541 56.5215 19.7693 56.4677 19.904V21.7738C56.4726 21.8088 56.4695 21.8445 56.4584 21.8781C56.4473 21.9116 56.4286 21.9421 56.4037 21.9671C56.3789 21.9921 56.3486 22.0109 56.3153 22.0221C56.282 22.0333 56.2466 22.0365 56.2118 22.0315H55.8286V18.9379H56.2118C56.2466 18.9329 56.282 18.9361 56.3153 18.9473C56.3486 18.9585 56.3789 18.9773 56.4037 19.0023C56.4286 19.0273 56.4473 19.0578 56.4584 19.0914C56.4695 19.1249 56.4726 19.1606 56.4677 19.1956V19.4209C56.6283 19.0985 56.8675 18.9415 57.1876 18.9415L57.9398 18.9379Z" fill="white"/>
<path d="M59.6129 18.1349C59.6131 18.2244 59.587 18.3119 59.5378 18.3864C59.4885 18.4609 59.4185 18.519 59.3365 18.5533C59.2544 18.5877 59.1641 18.5967 59.077 18.5793C58.9898 18.5619 58.9098 18.5189 58.847 18.4556C58.7842 18.3923 58.7414 18.3117 58.7241 18.2239C58.7069 18.1362 58.7158 18.0452 58.75 17.9626C58.7841 17.88 58.8417 17.8094 58.9157 17.7599C58.9897 17.7103 59.0766 17.684 59.1654 17.6842C59.2839 17.6848 59.3973 17.7325 59.4811 17.8169C59.5649 17.9013 59.6122 18.0155 59.6129 18.1349V18.1349ZM59.4843 19.198V22.0339H59.1011C59.0664 22.0389 59.031 22.0357 58.9976 22.0246C58.9643 22.0134 58.9341 21.9945 58.9092 21.9695C58.8844 21.9445 58.8657 21.914 58.8546 21.8805C58.8435 21.8469 58.8403 21.8112 58.8453 21.7762V18.9379H59.2285C59.2635 18.9328 59.2992 18.9361 59.3327 18.9474C59.3662 18.9587 59.3966 18.9778 59.4215 19.003C59.4464 19.0283 59.465 19.0592 59.4759 19.093C59.4869 19.1269 59.4897 19.1629 59.4843 19.198V19.198Z" fill="white"/>
<path d="M61.2445 20.7442V20.9384C61.2445 21.3243 61.4365 21.5173 61.8205 21.5173H63.4199C63.4547 21.5125 63.4902 21.5159 63.5235 21.5272C63.5568 21.5386 63.587 21.5575 63.6118 21.5826C63.6366 21.6077 63.6553 21.6383 63.6664 21.6718C63.6775 21.7054 63.6807 21.7412 63.6758 21.7762V22.0339H61.692C60.9668 22.0339 60.6042 21.6687 60.6042 20.9384V20.0358C60.6042 19.3055 60.9668 18.9403 61.692 18.9403H62.7796C63.504 18.9403 63.8666 19.3055 63.8674 20.0358V20.7442H61.2445ZM61.2445 20.2288H63.2271V20.0358C63.2271 19.6491 63.0351 19.4557 62.6511 19.4557H61.8181C61.4333 19.4557 61.2413 19.6491 61.2421 20.0358L61.2445 20.2288Z" fill="white"/>
<path d="M68.1634 20.0358V22.0339H67.7802C67.7454 22.0389 67.71 22.0357 67.6767 22.0245C67.6434 22.0133 67.6131 21.9945 67.5883 21.9695C67.5634 21.9445 67.5447 21.914 67.5336 21.8804C67.5225 21.8469 67.5193 21.8112 67.5243 21.7762V20.0358C67.5243 19.6491 67.3323 19.4557 66.9483 19.4557H66.245C66.1009 19.4537 65.9595 19.4956 65.8395 19.5761C65.7195 19.6565 65.6265 19.7717 65.5726 19.9064V21.7762C65.5776 21.8112 65.5744 21.8469 65.5633 21.8804C65.5522 21.914 65.5335 21.9445 65.5087 21.9695C65.4839 21.9945 65.4536 22.0133 65.4203 22.0245C65.387 22.0357 65.3515 22.0389 65.3168 22.0339H64.9336V18.9379H65.3168C65.3515 18.9329 65.387 18.9361 65.4203 18.9473C65.4536 18.9585 65.4839 18.9773 65.5087 19.0023C65.5335 19.0273 65.5522 19.0578 65.5633 19.0914C65.5744 19.1249 65.5776 19.1606 65.5726 19.1956V19.4209C65.7333 19.0985 65.9725 18.9415 66.2867 18.9415H67.0709C67.8 18.9391 68.1642 19.3039 68.1634 20.0358Z" fill="white"/>
<path d="M72.2631 21.7762V22.0339H70.3436C69.6185 22.0339 69.2563 21.6687 69.2571 20.9384V20.0358C69.2571 19.3055 69.6193 18.9403 70.3436 18.9403H72.1989V19.198C72.2039 19.233 72.2007 19.2687 72.1896 19.3023C72.1785 19.3358 72.1598 19.3663 72.1349 19.3913C72.1101 19.4163 72.0798 19.4351 72.0465 19.4463C72.0132 19.4575 71.9778 19.4607 71.943 19.4557H70.4721C70.0881 19.4557 69.8961 19.6491 69.8961 20.0358V20.9384C69.8961 21.3243 70.0881 21.5173 70.4721 21.5173H72.0073C72.0422 21.5123 72.0777 21.5155 72.1111 21.5267C72.1445 21.538 72.1749 21.5569 72.1997 21.5821C72.2246 21.6072 72.2433 21.6379 72.2543 21.6716C72.2653 21.7053 72.2683 21.7411 72.2631 21.7762Z" fill="white"/>
<path d="M73.8363 20.7442V20.9384C73.8363 21.3243 74.0279 21.5173 74.4111 21.5173H76.0105C76.0454 21.5123 76.0809 21.5155 76.1144 21.5267C76.1478 21.538 76.1781 21.5569 76.203 21.5821C76.2278 21.6072 76.2465 21.6379 76.2575 21.6716C76.2685 21.7053 76.2715 21.7411 76.2664 21.7762V22.0339H74.2837C73.5594 22.0339 73.1968 21.6687 73.196 20.9384V20.0358C73.196 19.3055 73.5586 18.9403 74.2837 18.9403H75.3714C76.0966 18.9403 76.4591 19.3055 76.4591 20.0358V20.7442H73.8363ZM73.8363 20.2288H75.8189V20.0358C75.8189 19.6491 75.6269 19.4557 75.2429 19.4557H74.4099C74.0267 19.4557 73.8351 19.6491 73.8351 20.0358L73.8363 20.2288Z" fill="white"/>
<path d="M83.24 20.0358V20.9384C83.24 21.6679 82.8775 22.0331 82.1523 22.0339H81.336C81.017 22.0339 80.7766 21.8721 80.6219 21.5545V21.781C80.6269 21.816 80.6237 21.8517 80.6126 21.8853C80.6015 21.9188 80.5828 21.9493 80.558 21.9743C80.5332 21.9993 80.5029 22.0182 80.4696 22.0293C80.4363 22.0405 80.4008 22.0437 80.3661 22.0387H79.9817V17.979H80.3661C80.4008 17.974 80.4363 17.9772 80.4696 17.9884C80.5029 17.9996 80.5332 18.0184 80.558 18.0434C80.5828 18.0685 80.6015 18.0989 80.6126 18.1325C80.6237 18.166 80.6269 18.2017 80.6219 18.2367V19.4282C80.7814 19.1057 81.0218 18.9487 81.336 18.9487H82.1523C82.8767 18.9415 83.2392 19.3039 83.24 20.0358ZM82.5998 20.0358C82.5998 19.6491 82.4078 19.4557 82.0238 19.4557H81.2884C81.1444 19.4539 81.0033 19.496 80.8835 19.5764C80.7637 19.6569 80.6709 19.7719 80.6172 19.9064V21.0666C80.6709 21.2012 80.7637 21.3162 80.8835 21.3966C81.0033 21.477 81.1444 21.5191 81.2884 21.5173H82.0238C82.4086 21.5173 82.6006 21.3243 82.5998 20.9384V20.0358Z" fill="white"/>
<path d="M87.5637 18.9379V21.6467C87.5637 22.5489 87.1158 23 86.2201 23H84.5886V22.7423C84.5836 22.7073 84.5868 22.6716 84.5979 22.638C84.609 22.6045 84.6277 22.574 84.6525 22.549C84.6773 22.524 84.7076 22.5051 84.7409 22.494C84.7742 22.4828 84.8097 22.4796 84.8444 22.4846H86.0916C86.6469 22.4846 86.9246 22.2049 86.9246 21.6455V21.5485C86.7659 21.8681 86.5279 22.0279 86.2106 22.0279H85.4275C84.7016 22.0279 84.3391 21.6627 84.3398 20.9324V18.9379H84.723C84.7578 18.9329 84.7932 18.9361 84.8265 18.9473C84.8599 18.9585 84.8901 18.9773 84.915 19.0023C84.9398 19.0273 84.9585 19.0578 84.9696 19.0914C84.9807 19.1249 84.9839 19.1606 84.9789 19.1956V20.936C84.9789 21.3219 85.1717 21.5149 85.5549 21.5149H86.2594C86.4033 21.5167 86.5444 21.4746 86.6642 21.3942C86.784 21.3137 86.8768 21.1987 86.9306 21.0642V19.198C86.9256 19.163 86.9288 19.1273 86.9399 19.0938C86.951 19.0602 86.9697 19.0297 86.9945 19.0047C87.0193 18.9797 87.0496 18.9609 87.0829 18.9497C87.1162 18.9385 87.1517 18.9353 87.1864 18.9403L87.5637 18.9379Z" fill="white"/>
<path d="M94.9406 18.1672V18.4249C94.9456 18.4599 94.9424 18.4956 94.9313 18.5292C94.9202 18.5627 94.9015 18.5932 94.8767 18.6182C94.8519 18.6432 94.8216 18.6621 94.7883 18.6733C94.755 18.6844 94.7195 18.6876 94.6848 18.6826H93.2781V22.0387H92.6379V18.6826H91.2301C91.1953 18.6876 91.1599 18.6844 91.1266 18.6733C91.0932 18.6621 91.063 18.6432 91.0381 18.6182C91.0133 18.5932 90.9946 18.5627 90.9835 18.5292C90.9724 18.4956 90.9692 18.4599 90.9742 18.4249V18.1672H94.9406Z" fill="white"/>
<path d="M99.8567 19.5205V20.6807C99.8567 21.5821 99.4089 22.0331 98.5132 22.0339H95.9534V18.1672H98.5132C99.4081 18.1672 99.8559 18.6183 99.8567 19.5205ZM99.2165 19.5205C99.2165 18.9611 98.9388 18.6814 98.3834 18.6814H96.5936V21.5161H98.3846C98.94 21.5161 99.2177 21.2365 99.2177 20.6771L99.2165 19.5205Z" fill="white"/>
<path d="M101.721 18.4249V22.0339H101.338C101.303 22.0389 101.268 22.0357 101.235 22.0245C101.201 22.0133 101.171 21.9945 101.146 21.9695C101.121 21.9445 101.103 21.914 101.092 21.8805C101.081 21.8469 101.077 21.8112 101.082 21.7762V18.1672H101.466C101.5 18.1622 101.536 18.1654 101.569 18.1766C101.602 18.1878 101.633 18.2066 101.657 18.2316C101.682 18.2566 101.701 18.2871 101.712 18.3207C101.723 18.3542 101.726 18.3899 101.721 18.4249V18.4249Z" fill="white"/>
<path d="M24.2175 9.24483L32.8013 14.0392C31.6113 11.8326 31.2126 10.9984 28.5981 6.78409C26.2656 3.02168 25.3302 1.64568 24.2175 0V9.24483Z" fill="white"/>
<path d="M23.801 9.24483L15.1362 14.0392C16.3263 11.8326 16.7238 10.9984 19.3383 6.78409C21.666 3.02168 22.6835 1.64568 23.801 0V9.24483Z" fill="white"/>
<path d="M23.9854 9.60919L15.5515 14.1915C18.5695 14.2658 20.7449 14.2718 23.9187 14.2921C27.5317 14.3137 29.6179 14.2706 32.3811 14.1915L23.9854 9.60919Z" fill="white"/>
</g>
<defs>
<clipPath id="clip0_211_7">
<rect width="102" height="23" fill="white"/>
</clipPath>
</defs>
</svg>
