<svg width="103" height="21" viewBox="0 0 103 21" fill="none" xmlns="http://www.w3.org/2000/svg">
<g clip-path="url(#clip0_90_2)">
<path d="M15.9732 0.541626L9.34572 14.266H6.74642L0 0.541626H1.80257L8.05148 12.8225L14.3004 0.541626H15.9732Z" fill="white"/>
<path d="M48.2428 14.266H36.7725V0.541626H38.3119V12.8212H48.2428V14.266Z" fill="white"/>
<path d="M66.2336 9.82902C66.2336 11.2572 65.5426 12.4134 64.1606 13.2976C62.7534 14.22 61.2368 14.6807 58.8887 14.6807C56.5405 14.6807 55.0096 14.22 53.5783 13.2976C52.1964 12.4005 51.5054 11.2443 51.5054 9.82902V0.541626H53.046V9.52073C53.046 10.5955 53.7538 11.6582 54.6899 12.2264C55.626 12.7946 57.1042 13.2009 58.8887 13.2009C60.6732 13.2009 62.2655 12.7959 63.1884 12.2264C63.6448 11.9387 64.0218 11.54 64.2847 11.0672C64.5476 10.5943 64.688 10.0625 64.693 9.52073V0.541626H66.2336V9.82902Z" fill="white"/>
<path d="M84.7207 14.266H71.7603V0.541626H84.1908V1.86304H73.3045V6.47651H80.6914V7.79793H73.3045V12.8212H84.7207V14.266Z" fill="white"/>
<path d="M100.792 3.15906C98.77 2.12417 98.2172 1.70828 95.6167 1.64542C94.2239 1.61398 93.1099 1.88721 92.372 2.21847C91.2905 2.70932 90.9 3.48669 90.9 4.067C90.9 4.67149 91.186 5.45129 92.2074 5.75958C93.1074 6.03584 94.0338 6.21576 94.9714 6.29637C99.1906 6.66631 100.434 6.71951 101.731 7.65042C102.114 7.9152 102.429 8.26874 102.648 8.6813C102.868 9.09387 102.985 9.55339 102.992 10.0212C103.043 11.472 102.471 12.5988 101.189 13.3943C99.9068 14.1898 98.9058 14.5888 96.5107 14.5888C93.0318 14.5888 90.948 13.7425 88.8715 12.276L89.7547 11.3523C92.0981 12.629 93.8273 13.2033 96.2896 13.2033C97.8843 13.2033 98.8805 12.982 99.7602 12.5395C100.601 12.1104 101.306 11.2762 101.29 10.2715C101.278 9.11692 100.307 8.10017 95.1756 7.95267C92.9224 7.88738 91.7688 7.39654 90.8639 6.94196C89.8136 6.40759 89.2272 5.3449 89.2284 4.37046C89.2284 3.08169 89.7091 2.06493 90.9108 1.31899C92.1125 0.57305 93.563 0.168041 95.7477 0.200684C98.8361 0.247834 100.522 1.38548 101.852 2.18462L100.792 3.15906Z" fill="white"/>
<path d="M24.4548 9.32487L33.1228 14.1608C31.9211 11.9351 31.5185 11.0936 28.8783 6.84283C26.523 3.04784 25.5784 1.65993 24.4548 0V9.32487Z" fill="white"/>
<path d="M24.0342 9.32487L15.2845 14.1608C16.4863 11.9351 16.8876 11.0936 19.5278 6.84283C21.8783 3.04784 22.9058 1.65993 24.0342 0V9.32487Z" fill="white"/>
<path d="M24.2205 9.69238L15.704 14.3143C18.7515 14.3893 20.9483 14.3953 24.1532 14.4159C27.8016 14.4376 29.9082 14.3941 32.6986 14.3143L24.2205 9.69238Z" fill="white"/>
<path d="M4.21926 18.6316L3.68569 18.8178C3.52578 18.6583 3.3353 18.5331 3.12582 18.45C2.91634 18.3669 2.69225 18.3275 2.46716 18.3342C2.10573 18.315 1.74844 18.419 1.45291 18.6292C1.33341 18.716 1.23656 18.8306 1.17064 18.9632C1.10472 19.0958 1.07169 19.2426 1.07437 19.3908C1.07036 19.5412 1.10271 19.6903 1.16865 19.8253C1.23459 19.9603 1.33214 20.0771 1.45291 20.1658C1.70527 20.36 2.04656 20.4575 2.47677 20.4584C2.70213 20.4673 2.92687 20.4289 3.13667 20.3457C3.34647 20.2624 3.53673 20.1361 3.69531 19.9748L4.19522 20.2432C3.97913 20.4887 3.71167 20.683 3.41205 20.8122C3.11244 20.9414 2.78811 21.0022 2.46235 20.9903C1.8663 20.9903 1.38562 20.8416 1.0203 20.5442C0.843366 20.4034 0.70173 20.2228 0.606772 20.017C0.511815 19.8111 0.466184 19.5857 0.473547 19.3589C0.48091 19.1321 0.541062 18.9102 0.649169 18.711C0.757275 18.5118 0.91032 18.3409 1.096 18.2121C1.48606 17.9364 1.95469 17.7959 2.43111 17.8119C2.77172 17.8012 3.11021 17.8695 3.42032 18.0117C3.73042 18.1538 4.0038 18.366 4.21926 18.6316Z" fill="white"/>
<path d="M8.71481 19.9264C8.71481 20.2424 8.55779 20.5003 8.24374 20.7002C7.92969 20.9001 7.50909 21 6.98194 21C6.45078 21 6.02858 20.9001 5.71533 20.7002C5.40049 20.4995 5.24426 20.242 5.24426 19.9264V17.9086H5.82589V19.8091C5.82589 20.2516 6.21124 20.4729 6.98194 20.4729C7.75264 20.4729 8.13598 20.2516 8.13198 19.8091V17.9086H8.71481V19.9264Z" fill="white"/>
<path d="M12.6468 18.651C12.2559 18.4458 11.821 18.3404 11.3802 18.3439C10.7168 18.3439 10.3851 18.4648 10.3851 18.7066C10.3851 18.8468 10.5053 18.9375 10.7589 18.9798C11.0978 19.0088 11.4374 19.0398 11.7779 19.0729C12.2666 19.1213 12.6143 19.2091 12.821 19.3365C12.9316 19.4006 13.0224 19.4943 13.0833 19.6072C13.1442 19.7201 13.1728 19.8478 13.1659 19.976C13.1694 20.1282 13.1313 20.2783 13.0556 20.4101C12.9799 20.5419 12.8697 20.6502 12.7369 20.7232C12.4501 20.8981 12.0351 20.9859 11.4919 20.9867C10.7236 20.9867 10.1104 20.811 9.6521 20.4596L9.96695 20.0449C10.4147 20.3451 10.9446 20.4968 11.4823 20.4789C11.7488 20.4912 12.0149 20.4471 12.2634 20.3496C12.4473 20.2637 12.5398 20.1489 12.5398 20.005C12.5398 19.8612 12.4269 19.733 12.1997 19.6689C12.0073 19.6239 11.8108 19.5992 11.6133 19.5952C11.1991 19.5758 10.9447 19.5613 10.8502 19.5517C10.4809 19.5154 10.2093 19.4348 10.0354 19.3099C9.94954 19.2492 9.88041 19.1676 9.83457 19.0726C9.78873 18.9776 9.76771 18.8724 9.77347 18.767C9.7738 18.6256 9.8132 18.4871 9.88726 18.3669C9.96132 18.2467 10.0671 18.1496 10.1929 18.0864C10.4733 17.9187 10.8658 17.8349 11.3705 17.8349C12.0435 17.8349 12.5887 17.9812 13.0061 18.2738L12.6468 18.651Z" fill="white"/>
<path d="M17.1845 18.437H15.758V20.9154H15.1764V18.437H13.7488V17.9086H17.1845V18.437Z" fill="white"/>
<path d="M21.8075 19.403C21.8101 19.6398 21.7543 19.8735 21.6451 20.0833C21.5358 20.293 21.3765 20.4722 21.1814 20.6047C20.7824 20.8627 20.3181 20.9999 19.8439 20.9999C19.3696 20.9999 18.9053 20.8627 18.5064 20.6047C18.3133 20.4714 18.1554 20.2928 18.0463 20.0844C17.9371 19.876 17.8801 19.644 17.8801 19.4084C17.8801 19.1728 17.9371 18.9408 18.0463 18.7324C18.1554 18.5239 18.3133 18.3454 18.5064 18.2121C18.9011 17.9475 19.3648 17.8063 19.8391 17.8063C20.3134 17.8063 20.777 17.9475 21.1718 18.2121C21.368 18.3415 21.529 18.5183 21.64 18.7263C21.751 18.9343 21.8086 19.1669 21.8075 19.403ZM21.2006 19.403C21.2026 19.2542 21.1692 19.107 21.1031 18.9739C21.0371 18.8408 20.9403 18.7255 20.8209 18.6377C20.5311 18.4406 20.1894 18.3353 19.8397 18.3353C19.4899 18.3353 19.1482 18.4406 18.8585 18.6377C18.7402 18.7274 18.6442 18.8433 18.5778 18.9765C18.5115 19.1096 18.4766 19.2564 18.4759 19.4054C18.4752 19.5544 18.5087 19.7015 18.5738 19.8353C18.6389 19.9691 18.7339 20.0859 18.8512 20.1767C19.139 20.3861 19.4891 20.4906 19.8439 20.4729C20.196 20.4904 20.5433 20.3858 20.8281 20.1767C20.9472 20.0866 21.0432 19.9692 21.108 19.8341C21.1728 19.6991 21.2046 19.5504 21.2006 19.4005V19.403Z" fill="white"/>
<path d="M27.0794 20.9154H26.4966L26.4822 18.4442L24.9824 20.4898L23.4863 18.4237L23.4719 18.4442V20.9154H22.8903V17.9086H23.7639L24.9812 19.6072L26.1974 17.9086H27.0746L27.0794 20.9154Z" fill="white"/>
<path d="M31.5546 20.9154H28.3412V17.9086H31.4428V18.437H28.9192V19.0862H30.6713V19.6133H28.924V20.3846H31.5546V20.9154Z" fill="white"/>
<path d="M36.0646 20.9154H35.3976L34.6153 19.8116H33.1324V20.9154H32.5496V17.9087H34.9626C35.2385 17.8944 35.5094 17.987 35.7197 18.1674C35.8136 18.2557 35.8874 18.3635 35.936 18.4833C35.9845 18.6031 36.0067 18.7321 36.0009 18.8613C36.0009 19.3594 35.7533 19.6637 35.2582 19.7741L36.0646 20.9154ZM34.8749 19.2833C35.2282 19.2833 35.4048 19.1466 35.4048 18.8734C35.4048 18.5833 35.2162 18.4394 34.8412 18.4394H33.1324V19.2857L34.8749 19.2833Z" fill="white"/>
<path d="M42.0455 20.9154H38.8309V17.9086H41.9398V18.437H39.4162V19.0862H41.1683V19.6133H39.4162V20.3846H42.0479L42.0455 20.9154Z" fill="white"/>
<path d="M46.439 20.9154H45.7083L44.515 19.7378L43.3229 20.9154H42.5935L44.1557 19.3908L42.6488 17.9086H43.3818L44.5186 19.0439L45.6531 17.9086H46.3861L44.8876 19.3872L46.439 20.9154Z" fill="white"/>
<path d="M49.6668 17.9087C49.9428 17.8944 50.2137 17.987 50.4239 18.1674C50.5179 18.2557 50.5917 18.3635 50.6402 18.4833C50.6888 18.6031 50.7109 18.7321 50.7051 18.8613C50.7127 18.993 50.6902 19.1246 50.6394 19.2462C50.5886 19.3677 50.5108 19.476 50.4119 19.5625C50.2164 19.7237 49.936 19.8043 49.5707 19.8043H47.8366V20.9154H47.2538V17.9087H49.6668ZM49.5791 19.2808C49.9324 19.2808 50.1079 19.1442 50.1079 18.871C50.1079 18.5978 49.9204 18.437 49.5455 18.437H47.8366V19.2833L49.5791 19.2808Z" fill="white"/>
<path d="M54.768 20.9154H51.5535V17.9086H54.6563V18.437H52.1327V19.0862H53.8848V19.6133H52.1375V20.3846H54.768V20.9154Z" fill="white"/>
<path d="M59.2781 20.9154H58.6112L57.8289 19.8116H56.346V20.9154H55.7595V17.9087H58.1726C58.4485 17.8944 58.7194 17.987 58.9296 18.1674C59.0239 18.2555 59.0981 18.3632 59.1468 18.4831C59.1956 18.6029 59.2178 18.732 59.212 18.8613C59.212 19.3594 58.9645 19.6637 58.4694 19.7741L59.2781 20.9154ZM58.0896 19.2833C58.4413 19.2833 58.6176 19.1466 58.6184 18.8734C58.6184 18.5833 58.4309 18.4394 58.0548 18.4394H56.346V19.2857L58.0896 19.2833Z" fill="white"/>
<path d="M60.9268 20.9154H60.344V17.9086H60.9268V20.9154Z" fill="white"/>
<path d="M65.4044 20.9154H62.191V17.9086H65.2927V18.437H62.7691V19.0862H64.532V19.6133H62.7739V20.3846H65.4044V20.9154Z" fill="white"/>
<path d="M69.8808 20.9154H69.0107L66.9822 18.4091V20.9154H66.3994V17.9086H67.2671L69.2979 20.4161V17.9086H69.8808V20.9154Z" fill="white"/>
<path d="M74.7153 18.6316L74.1817 18.8178C74.0218 18.6583 73.8313 18.5331 73.6219 18.45C73.4124 18.3669 73.1883 18.3275 72.9632 18.3342C72.6014 18.3151 72.2437 18.419 71.9478 18.6292C71.8283 18.716 71.7314 18.8306 71.6655 18.9632C71.5996 19.0958 71.5665 19.2426 71.5692 19.3908C71.5652 19.5412 71.5976 19.6903 71.6635 19.8253C71.7294 19.9603 71.827 20.0771 71.9478 20.1658C72.2001 20.36 72.5418 20.4575 72.9728 20.4584C73.1981 20.4671 73.4228 20.4286 73.6326 20.3454C73.8424 20.2621 74.0326 20.1359 74.1914 19.9748L74.6913 20.2432C74.4751 20.4886 74.2077 20.6829 73.9081 20.8121C73.6085 20.9413 73.2841 21.0021 72.9584 20.9903C72.3623 20.9903 71.8817 20.8416 71.5163 20.5442C71.3393 20.4035 71.1976 20.223 71.1026 20.0172C71.0075 19.8114 70.9618 19.586 70.969 19.3592C70.9763 19.1324 71.0363 18.9105 71.1443 18.7112C71.2523 18.512 71.4052 18.341 71.5908 18.2121C72.0745 17.8915 72.6569 17.7575 73.231 17.8345C73.805 17.9116 74.3321 18.1947 74.7153 18.6316Z" fill="white"/>
<path d="M78.9874 20.9154H75.774V17.9086H78.8757V18.437H76.3521V19.0862H78.1114V19.6133H76.3557V20.3846H78.9874V20.9154Z" fill="white"/>
<path d="M84.8025 19.3594C84.9472 19.4205 85.0704 19.524 85.1561 19.6563C85.2418 19.7886 85.286 19.9438 85.2832 20.1017C85.2832 20.6425 84.893 20.9129 84.1127 20.9129H81.6816V17.9086H84.1379C84.4063 17.8934 84.6713 17.9748 84.8854 18.1383C84.9736 18.2115 85.0439 18.304 85.091 18.4088C85.1381 18.5136 85.1607 18.6279 85.157 18.7428C85.1573 18.8679 85.1246 18.9909 85.0624 19.0992C85.0001 19.2075 84.9104 19.2973 84.8025 19.3594ZM84.1476 19.1297C84.2626 19.1362 84.3765 19.1025 84.4696 19.0342C84.5085 19.0037 84.5397 18.9643 84.5606 18.9193C84.5815 18.8744 84.5915 18.8251 84.5898 18.7754C84.5898 18.549 84.4492 18.4361 84.168 18.4369H82.2633V19.1297H84.1476ZM84.1079 20.3846C84.257 20.3933 84.4057 20.3611 84.5381 20.2915C84.5841 20.2674 84.6226 20.2312 84.6495 20.1866C84.6764 20.1421 84.6907 20.091 84.6907 20.0388C84.6907 19.7849 84.5129 19.6568 84.1572 19.6568H82.2633V20.3822L84.1079 20.3846Z" fill="white"/>
<path d="M89.8557 17.9086L88.1565 19.7306V20.9154H87.5749V19.7306L85.8853 17.9086H86.5955L87.8729 19.2784L89.1503 17.9086H89.8557Z" fill="white"/>
<path d="M95.8606 17.9038H94.1782V20.9154H93.5954V17.9038H91.913V17.3767H95.8546L95.8606 17.9038Z" fill="white"/>
<path d="M99.0115 17.3767C99.6236 17.3767 100.108 17.5403 100.466 17.8676C100.645 18.0347 100.785 18.2391 100.878 18.4664C100.97 18.6938 101.013 18.9387 101.002 19.1841C101.006 19.4234 100.957 19.6607 100.859 19.8786C100.76 20.0965 100.615 20.2897 100.433 20.4439C100.07 20.76 99.6029 20.9274 99.1233 20.913H96.7883V17.3767H99.0115ZM99.1713 20.3847C99.3304 20.3901 99.4889 20.3628 99.6371 20.3044C99.7852 20.246 99.92 20.1577 100.033 20.0449C100.145 19.9297 100.233 19.7927 100.291 19.6422C100.349 19.4917 100.376 19.3309 100.371 19.1696C100.378 18.9998 100.35 18.8303 100.288 18.6721C100.226 18.514 100.131 18.3709 100.01 18.252C99.752 18.014 99.4106 17.8888 99.0608 17.9038H97.37V20.3847H99.1713Z" fill="white"/>
<path d="M102.784 20.9154H102.201V17.3767H102.784V20.9154Z" fill="white"/>
</g>
<defs>
<clipPath id="clip0_90_2">
<rect width="103" height="21" fill="white"/>
</clipPath>
</defs>
</svg>
