<svg width="178" height="36" viewBox="0 0 178 36" fill="none" xmlns="http://www.w3.org/2000/svg">
<g clip-path="url(#clip0_203_34)">
<path d="M27.6041 0.928528L16.1509 24.456H11.6589L0 0.928528H3.11512L13.9142 21.9814L24.7133 0.928528H27.6041Z" fill="#004B6F"/>
<path d="M83.371 24.456H63.5485V0.928528H66.2088V21.9793H83.371V24.456Z" fill="#004B6F"/>
<path d="M114.462 16.8498C114.462 19.2981 113.268 21.2802 110.88 22.7959C108.448 24.3772 105.827 25.1669 101.769 25.1669C97.711 25.1669 95.0652 24.3772 92.5918 22.7959C90.2035 21.2581 89.0094 19.276 89.0094 16.8498V0.928528H91.6718V16.3213C91.6718 18.1638 92.895 19.9855 94.5128 20.9596C96.1306 21.9337 98.685 22.6301 101.769 22.6301C104.853 22.6301 107.605 21.9358 109.2 20.9596C109.988 20.4664 110.64 19.783 111.094 18.9724C111.548 18.1618 111.791 17.2501 111.8 16.3213V0.928528H114.462V16.8498Z" fill="#004B6F"/>
<path d="M146.411 24.456H124.013V0.928528H145.495V3.19381H126.682V11.1026H139.447V13.3679H126.682V21.9793H146.411V24.456Z" fill="#004B6F"/>
<path d="M174.185 5.41552C170.69 3.64143 169.735 2.92848 165.241 2.8207C162.834 2.76682 160.908 3.23521 159.633 3.80309C157.764 4.64454 157.089 5.97718 157.089 6.972C157.089 8.00827 157.584 9.34506 159.349 9.87355C160.904 10.3471 162.505 10.6556 164.125 10.7938C171.417 11.428 173.566 11.5191 175.807 13.115C176.47 13.5689 177.013 14.175 177.392 14.8822C177.772 15.5895 177.975 16.3772 177.986 17.1793C178.075 19.6663 177.086 21.5979 174.87 22.9616C172.655 24.3254 170.925 25.0093 166.786 25.0093C160.773 25.0093 157.172 23.5585 153.584 21.0445L155.11 19.4611C159.16 21.6497 162.148 22.6342 166.404 22.6342C169.159 22.6342 170.881 22.2549 172.401 21.4964C173.855 20.7606 175.072 19.3305 175.045 17.6083C175.024 15.629 173.346 13.886 164.478 13.6331C160.584 13.5212 158.591 12.6798 157.027 11.9005C155.212 10.9844 154.198 9.16267 154.201 7.49221C154.201 5.28288 155.031 3.53988 157.108 2.26112C159.185 0.982362 161.691 0.288062 165.467 0.34402C170.804 0.424849 173.718 2.37511 176.017 3.74506L174.185 5.41552Z" fill="#004B6F"/>
<path d="M42.2618 15.9855L57.2414 24.2756C55.1647 20.4601 54.469 19.0176 49.9063 11.7306C45.8359 5.22487 44.2036 2.8456 42.2618 0V15.9855Z" fill="#004B6F"/>
<path d="M41.535 15.9855L26.4142 24.2756C28.4909 20.4601 29.1846 19.0176 33.7472 11.7306C37.8093 5.22487 39.5849 2.8456 41.535 0V15.9855Z" fill="#6A9FBC"/>
<path d="M41.8568 16.6155L27.1389 24.5389C32.4055 24.6674 36.2018 24.6777 41.7405 24.7129C48.0455 24.7503 51.6861 24.6756 56.5083 24.5389L41.8568 16.6155Z" fill="#C1D1D3"/>
<path d="M7.29151 31.9399L6.36944 32.259C6.09308 31.9856 5.7639 31.7711 5.40189 31.6286C5.03988 31.4861 4.6526 31.4185 4.26362 31.43C3.63901 31.3972 3.02155 31.5754 2.51084 31.9357C2.30432 32.0845 2.13695 32.281 2.02303 32.5084C1.90912 32.7357 1.85204 32.9873 1.85667 33.2414C1.84973 33.4992 1.90564 33.7548 2.01959 33.9862C2.13355 34.2176 2.30213 34.4179 2.51084 34.5699C2.94696 34.9029 3.53675 35.0701 4.28023 35.0715C4.66968 35.0868 5.05807 35.0211 5.42064 34.8783C5.78321 34.7356 6.112 34.519 6.38605 34.2425L7.24998 34.7026C6.87653 35.1235 6.41432 35.4566 5.89654 35.6781C5.37876 35.8995 4.81826 36.0038 4.25531 35.9834C3.22524 35.9834 2.39454 35.7285 1.76321 35.2186C1.45745 34.9773 1.21268 34.6677 1.04858 34.3149C0.884477 33.962 0.80562 33.5756 0.818345 33.1867C0.83107 32.7979 0.935022 32.4175 1.12185 32.076C1.30867 31.7346 1.57316 31.4416 1.89405 31.2207C2.56812 30.7481 3.378 30.5073 4.20131 30.5347C4.78994 30.5163 5.37491 30.6335 5.91082 30.8772C6.44673 31.1209 6.91918 31.4845 7.29151 31.9399Z" fill="#6A9FBC"/>
<path d="M15.0605 34.1596C15.0605 34.7012 14.7891 35.1433 14.2464 35.486C13.7037 35.8287 12.9768 36 12.0658 36C11.1479 36 10.4183 35.8287 9.87695 35.486C9.33284 35.142 9.06287 34.7005 9.06287 34.1596V30.7005H10.068V33.9585C10.068 34.7171 10.734 35.0964 12.0658 35.0964C13.3977 35.0964 14.0602 34.7171 14.0533 33.9585V30.7005H15.0605V34.1596Z" fill="#6A9FBC"/>
<path d="M21.8557 31.9731C21.1802 31.6214 20.4286 31.4407 19.6668 31.4466C18.5204 31.4466 17.9472 31.6539 17.9472 32.0684C17.9472 32.3088 18.1549 32.4643 18.5931 32.5368C19.1787 32.5865 19.7658 32.6397 20.3542 32.6964C21.1987 32.7793 21.7996 32.9299 22.1568 33.1482C22.3479 33.2582 22.5048 33.4188 22.61 33.6123C22.7152 33.8059 22.7647 34.0247 22.7528 34.2446C22.7589 34.5054 22.6929 34.7629 22.5622 34.9888C22.4314 35.2147 22.2409 35.4003 22.0114 35.5254C21.5158 35.8252 20.7986 35.9758 19.8599 35.9772C18.5322 35.9772 17.4724 35.676 16.6804 35.0736L17.2245 34.3627C17.9983 34.8773 18.914 35.1374 19.8433 35.1067C20.3038 35.1277 20.7637 35.0522 21.1932 34.885C21.5109 34.7378 21.6708 34.5409 21.6708 34.2943C21.6708 34.0477 21.4756 33.828 21.0831 33.7181C20.7506 33.641 20.411 33.5987 20.0697 33.5917C19.3539 33.5586 18.9143 33.5337 18.7509 33.5171C18.1127 33.4549 17.6433 33.3168 17.3429 33.1026C17.1944 32.9986 17.075 32.8586 16.9958 32.6958C16.9165 32.533 16.8802 32.3527 16.8902 32.172C16.8907 31.9296 16.9588 31.6921 17.0868 31.4861C17.2148 31.28 17.3976 31.1135 17.615 31.0052C18.0995 30.7178 18.7779 30.5741 19.6502 30.5741C20.8131 30.5741 21.7553 30.8249 22.4766 31.3264L21.8557 31.9731Z" fill="#6A9FBC"/>
<path d="M29.6974 31.6062H27.2323V35.8549H26.2272V31.6062H23.76V30.7005H29.6974V31.6062Z" fill="#6A9FBC"/>
<path d="M37.6867 33.2621C37.6913 33.6681 37.5949 34.0688 37.4061 34.4284C37.2172 34.788 36.9419 35.0951 36.6047 35.3222C35.9153 35.7646 35.1129 35.9998 34.2933 35.9998C33.4737 35.9998 32.6713 35.7646 31.9819 35.3222C31.6482 35.0938 31.3753 34.7877 31.1868 34.4304C30.9982 34.0731 30.8997 33.6753 30.8997 33.2715C30.8997 32.8676 30.9982 32.4699 31.1868 32.1126C31.3753 31.7553 31.6482 31.4492 31.9819 31.2207C32.664 30.7671 33.4653 30.5251 34.285 30.5251C35.1046 30.5251 35.906 30.7671 36.5881 31.2207C36.9273 31.4426 37.2054 31.7456 37.3973 32.1021C37.5892 32.4587 37.6887 32.8574 37.6867 33.2621ZM36.6379 33.2621C36.6414 33.0071 36.5837 32.7549 36.4695 32.5266C36.3553 32.2984 36.1881 32.1008 35.9817 31.9502C35.481 31.6125 34.8904 31.4319 34.286 31.4319C33.6816 31.4319 33.0911 31.6125 32.5904 31.9502C32.386 32.104 32.2201 32.3027 32.1054 32.531C31.9907 32.7593 31.9304 33.0109 31.9292 33.2663C31.928 33.5217 31.9859 33.7739 32.0984 34.0032C32.2109 34.2326 32.375 34.4329 32.5779 34.5886C33.0752 34.9475 33.6803 35.1266 34.2933 35.0963C34.9018 35.1263 35.5021 34.947 35.9942 34.5886C36.2001 34.4342 36.366 34.2328 36.478 34.0013C36.59 33.7698 36.6448 33.515 36.6379 33.258V33.2621Z" fill="#6A9FBC"/>
<path d="M46.7974 35.8549H45.7902L45.7653 31.6186L43.1735 35.1254L40.5879 31.5834L40.563 31.6186V35.8549H39.5579V30.7005H41.0677L43.1714 33.6124L45.2731 30.7005H46.7891L46.7974 35.8549Z" fill="#6A9FBC"/>
<path d="M54.5312 35.8549H48.978V30.7005H54.3381V31.6062H49.9769V32.7192H53.0048V33.6228H49.9853V34.9451H54.5312V35.8549Z" fill="#6A9FBC"/>
<path d="M62.3252 35.8549H61.1726L59.8207 33.9627H57.258V35.8549H56.2507V30.7005H60.4208C60.8977 30.6761 61.3659 30.8348 61.7292 31.144C61.8916 31.2955 62.0191 31.4802 62.103 31.6856C62.1869 31.891 62.2252 32.1121 62.2151 32.3337C62.2151 33.1875 61.7873 33.7091 60.9317 33.8984L62.3252 35.8549ZM60.2692 33.057C60.8798 33.057 61.1851 32.8228 61.1851 32.3544C61.1851 31.857 60.859 31.6103 60.2111 31.6103H57.258V33.0611L60.2692 33.057Z" fill="#6A9FBC"/>
<path d="M72.6613 35.8549H67.106V30.7005H72.4785V31.6062H68.1173V32.7192H71.1452V33.6228H68.1173V34.9451H72.6654L72.6613 35.8549Z" fill="#6A9FBC"/>
<path d="M80.2537 35.8549H78.9911L76.9289 33.8362L74.8687 35.8549H73.6082L76.3079 33.2414L73.7037 30.7005H74.9705L76.9351 32.6466L78.8955 30.7005H80.1624L77.5727 33.2352L80.2537 35.8549Z" fill="#6A9FBC"/>
<path d="M85.832 30.7005C86.3088 30.6761 86.777 30.8348 87.1403 31.144C87.3027 31.2955 87.4302 31.4802 87.5141 31.6856C87.598 31.891 87.6363 32.1121 87.6263 32.3337C87.6394 32.5593 87.6006 32.785 87.5128 32.9934C87.4249 33.2018 87.2904 33.3873 87.1196 33.5357C86.7817 33.8121 86.2972 33.9502 85.6658 33.9502H82.6691V35.8549H81.6619V30.7005H85.832ZM85.6804 33.0528C86.2909 33.0528 86.5941 32.8186 86.5941 32.3502C86.5941 31.8818 86.2702 31.6062 85.6222 31.6062H82.6691V33.057L85.6804 33.0528Z" fill="#6A9FBC"/>
<path d="M94.6477 35.8549H89.0924V30.7005H94.4546V31.6062H90.0934V32.7192H93.1213V33.6228H90.1017V34.9451H94.6477V35.8549Z" fill="#6A9FBC"/>
<path d="M102.442 35.8549H101.289L99.9372 33.9627H97.3745V35.8549H96.3611V30.7005H100.531C101.008 30.6761 101.476 30.8348 101.84 31.144C102.003 31.2951 102.131 31.4798 102.215 31.6852C102.299 31.8906 102.338 32.1119 102.328 32.3337C102.328 33.1875 101.9 33.7091 101.044 33.8984L102.442 35.8549ZM100.388 33.057C100.996 33.057 101.3 32.8228 101.302 32.3544C101.302 31.857 100.978 31.6103 100.328 31.6103H97.3745V33.0611L100.388 33.057Z" fill="#6A9FBC"/>
<path d="M105.291 35.8549H104.284V30.7005H105.291V35.8549Z" fill="#6A9FBC"/>
<path d="M113.029 35.8549H107.476V30.7005H112.836V31.6062H108.475V32.7192H111.521V33.6228H108.483V34.9451H113.029V35.8549Z" fill="#6A9FBC"/>
<path d="M120.765 35.8549H119.261L115.756 31.5585V35.8549H114.749V30.7005H116.248L119.758 34.9989V30.7005H120.765V35.8549Z" fill="#6A9FBC"/>
<path d="M129.12 31.9399L128.198 32.2591C127.921 31.9856 127.592 31.7711 127.23 31.6286C126.868 31.4861 126.481 31.4185 126.092 31.43C125.466 31.3973 124.848 31.5754 124.337 31.9357C124.13 32.0846 123.963 32.281 123.849 32.5084C123.735 32.7358 123.678 32.9873 123.683 33.2414C123.676 33.4992 123.732 33.7548 123.846 33.9862C123.96 34.2176 124.128 34.4179 124.337 34.5699C124.773 34.9029 125.363 35.0701 126.108 35.0715C126.498 35.0865 126.886 35.0205 127.249 34.8778C127.611 34.7351 127.94 34.5187 128.214 34.2425L129.078 34.7026C128.705 35.1234 128.242 35.4564 127.725 35.6779C127.207 35.8993 126.646 36.0037 126.083 35.9834C125.053 35.9834 124.223 35.7285 123.591 35.2186C123.285 34.9775 123.041 34.6681 122.876 34.3153C122.712 33.9625 122.633 33.5761 122.645 33.1873C122.658 32.7984 122.762 32.418 122.948 32.0764C123.135 31.7349 123.399 31.4418 123.72 31.2207C124.556 30.6712 125.562 30.4414 126.554 30.5735C127.547 30.7057 128.457 31.1909 129.12 31.9399Z" fill="#6A9FBC"/>
<path d="M136.502 35.8549H130.949V30.7005H136.309V31.6062H131.948V32.7192H134.988V33.6228H131.954V34.9451H136.502V35.8549Z" fill="#6A9FBC"/>
<path d="M146.552 33.1875C146.802 33.2924 147.015 33.4697 147.163 33.6966C147.311 33.9234 147.388 34.1894 147.383 34.4601C147.383 35.3872 146.708 35.8507 145.36 35.8507H141.159V30.7005H145.403C145.867 30.6744 146.325 30.814 146.695 31.0943C146.848 31.2197 146.969 31.3783 147.051 31.558C147.132 31.7376 147.171 31.9335 147.165 32.1305C147.165 32.345 147.109 32.5558 147.001 32.7415C146.893 32.9271 146.738 33.081 146.552 33.1875ZM145.42 32.7938C145.619 32.805 145.816 32.7472 145.977 32.63C146.044 32.5777 146.098 32.5102 146.134 32.4332C146.17 32.3561 146.187 32.2715 146.184 32.1865C146.184 31.7982 145.941 31.6048 145.455 31.6062H142.164V32.7938H145.42ZM145.352 34.945C145.609 34.96 145.866 34.9048 146.095 34.7855C146.174 34.7442 146.241 34.682 146.287 34.6056C146.334 34.5293 146.359 34.4417 146.359 34.3523C146.359 33.9171 146.051 33.6974 145.437 33.6974H142.164V34.9409L145.352 34.945Z" fill="#004B6F"/>
<path d="M155.285 30.7005L152.348 33.8238V35.8549H151.343V33.8238L148.423 30.7005H149.65L151.858 33.0487L154.065 30.7005H155.285Z" fill="#004B6F"/>
<path d="M165.662 30.6922H162.755V35.8549H161.747V30.6922H158.84V29.7886H165.652L165.662 30.6922Z" fill="#004B6F"/>
<path d="M171.107 29.7886C172.165 29.7886 173.003 30.0691 173.62 30.63C173.929 30.9166 174.172 31.2669 174.332 31.6567C174.492 32.0464 174.565 32.4663 174.546 32.887C174.554 33.2972 174.47 33.704 174.3 34.0775C174.13 34.4511 173.878 34.7822 173.564 35.0466C172.937 35.5885 172.129 35.8755 171.3 35.8508H167.265V29.7886H171.107ZM171.383 34.9451C171.658 34.9544 171.932 34.9076 172.188 34.8075C172.444 34.7073 172.677 34.556 172.872 34.3627C173.067 34.1652 173.219 33.9303 173.319 33.6723C173.419 33.4143 173.466 33.1387 173.456 32.8621C173.469 32.571 173.42 32.2804 173.313 32.0093C173.205 31.7382 173.042 31.4928 172.833 31.2891C172.387 30.8812 171.797 30.6665 171.192 30.6922H168.27V34.9451H171.383Z" fill="#004B6F"/>
<path d="M177.626 35.8549H176.619V29.7886H177.626V35.8549Z" fill="#004B6F"/>
</g>
<defs>
<clipPath id="clip0_203_34">
<rect width="178" height="36" fill="white"/>
</clipPath>
</defs>
</svg>
