<svg width="69" height="50" viewBox="0 0 69 50" fill="none" xmlns="http://www.w3.org/2000/svg">
    <g clip-path="url(#clip0_67_315)">
        <path fill-rule="evenodd" clip-rule="evenodd"
              d="M0 50C0 50 0.836888 46.8968 2.16437 44.1415C3.49184 41.3863 5.94479 35.5568 20.6048 35.5568C35.2647 35.5568 35.1782 35.7019 39.7089 35.7019C44.2397 35.7019 53.936 35.7019 58.6976 31.6705C56.4755 36.1369 57.6299 44.9536 37.1982 44.9536H20.0853C20.0853 44.9246 2.53952 44.2285 0 50ZM5.16562 34.1647C5.16562 34.1647 6.00251 31.0615 7.32999 28.3063C8.62861 25.58 11.0816 19.7216 25.7415 19.7216C40.4015 19.7216 40.3149 19.8666 44.8457 19.8666C49.3764 19.8666 59.0728 19.8666 63.8344 15.8063C61.6123 20.2726 62.7666 29.0893 42.335 29.0893H25.2509C25.2509 29.1183 7.70514 28.3933 5.16562 34.1647ZM10.3024 18.3585C10.3024 18.3585 11.1393 15.2552 12.4668 12.5C13.7942 9.74478 16.2472 3.91531 30.9072 3.91531C45.5671 3.91531 45.4806 4.06032 50.0113 4.06032C54.542 4.06032 64.2384 4.06032 69 0C66.7779 4.46636 67.9322 13.2831 47.5006 13.2831H30.3877C30.4166 13.2831 12.8708 12.558 10.3024 18.3585Z"
              fill="url(#paint0_linear_67_315)"/>
    </g>
    <defs>
        <linearGradient id="paint0_linear_67_315" x1="34.5" y1="0" x2="34.5" y2="50" gradientUnits="userSpaceOnUse">
            <stop stop-color="#FBD77A"/>
            <stop offset="1" stop-color="#E39E5F"/>
        </linearGradient>
        <clipPath id="clip0_67_315">
            <rect width="69" height="50" fill="white"/>
        </clipPath>
    </defs>
</svg>
