<?xml version="1.0" standalone="no"?>
<!DOCTYPE svg PUBLIC "-//W3C//DTD SVG 20010904//EN"
 "http://www.w3.org/TR/2001/REC-SVG-20010904/DTD/svg10.dtd">
<svg version="1.0" xmlns="http://www.w3.org/2000/svg"
 width="708.000000pt" height="708.000000pt" viewBox="0 0 708.000000 708.000000"
 preserveAspectRatio="xMidYMid meet">
<metadata>
Created by potrace 1.14, written by Peter Selinger 2001-2017
</metadata>
<g transform="translate(0.000000,708.000000) scale(0.100000,-0.100000)"
fill="#000000" stroke="none">
<path d="M3405 6327 c-16 -23 -33 -46 -38 -52 -7 -9 -33 -48 -62 -94 -11 -19
-56 -81 -68 -96 -4 -5 -52 -75 -107 -155 -54 -80 -103 -149 -107 -155 -23 -27
-143 -208 -143 -215 0 -5 -4 -10 -8 -12 -5 -1 -63 -84 -130 -183 -67 -99 -127
-187 -132 -195 -39 -57 -280 -424 -280 -427 0 -2 -16 -25 -35 -52 -19 -26 -35
-53 -35 -60 0 -6 -4 -11 -10 -11 -5 0 -10 -6 -10 -14 0 -8 -4 -16 -8 -18 -4
-1 -19 -21 -32 -43 -13 -22 -28 -44 -32 -50 -5 -5 -56 -84 -113 -175 -58 -91
-113 -178 -124 -195 -35 -56 -107 -170 -151 -240 -24 -38 -67 -106 -95 -150
-29 -44 -60 -96 -71 -115 -10 -19 -22 -36 -26 -38 -5 -2 -8 -10 -8 -18 0 -8
-4 -14 -10 -14 -5 0 -10 -4 -10 -10 0 -9 -69 -123 -90 -147 -5 -7 -10 -15 -10
-17 0 -3 -21 -38 -47 -78 -25 -40 -102 -165 -171 -278 -118 -194 -170 -279
-200 -325 -7 -11 -15 -28 -18 -37 -4 -10 -10 -18 -15 -18 -5 0 -9 -4 -9 -9 0
-8 -41 -79 -109 -191 -11 -17 -155 -260 -181 -305 -44 -75 -176 -306 -208
-365 -19 -36 -46 -82 -59 -102 -13 -21 -23 -40 -23 -43 0 -3 -22 -45 -49 -93
-27 -48 -49 -91 -49 -96 0 -5 -4 -12 -9 -15 -4 -3 -21 -31 -37 -61 -16 -30
-37 -68 -46 -85 -73 -133 -164 -300 -188 -350 -9 -16 -18 -32 -22 -35 -4 -3
-9 -12 -12 -21 -5 -12 12 -7 60 19 37 19 72 38 77 42 6 4 50 29 100 56 50 26
108 58 130 70 22 13 60 34 85 47 25 13 86 46 135 74 50 27 126 69 170 93 44
24 96 52 115 63 19 11 69 38 110 60 41 22 80 43 85 47 9 7 50 29 207 114 37
20 90 49 117 66 28 16 51 26 51 22 0 -4 4 -2 8 3 8 11 18 17 150 87 53 29 99
54 102 57 4 5 38 23 172 93 18 9 38 21 43 25 6 4 33 19 60 33 28 14 52 27 55
30 3 3 23 14 45 26 37 19 82 44 205 112 25 13 74 40 110 60 86 46 166 90 215
117 22 12 65 36 95 52 30 17 71 39 90 50 19 11 64 36 100 55 119 65 184 101
253 140 38 21 71 38 73 38 2 0 37 20 78 44 41 24 77 42 80 38 3 -3 6 -1 6 5 0
6 11 14 25 17 14 4 25 14 26 24 0 9 0 85 -1 167 -1 83 -1 159 -1 170 0 26 1
197 0 210 0 6 1 62 2 127 1 64 -2 121 -5 127 -4 6 -4 11 1 11 4 0 7 26 5 57
-2 32 -3 63 -3 68 2 92 2 129 2 175 -1 77 -1 196 0 255 0 28 0 56 0 63 -2 25
-2 120 0 257 0 28 0 56 0 63 -2 25 -2 117 0 257 0 28 0 56 0 63 -2 25 -2 128
0 257 0 28 0 84 -1 125 0 41 -1 82 -1 90 0 8 0 87 0 175 0 88 0 169 0 180 0
30 1 199 0 210 0 6 1 62 2 127 1 64 -2 121 -5 127 -4 6 -4 11 1 11 7 0 8 19 3
120 -1 14 -1 47 0 73 1 27 0 50 -2 52 -1 2 -16 -15 -33 -38z"/>
<path d="M3639 6363 c0 -5 -1 -819 -1 -1810 -1 -1730 -1 -1804 17 -1823 10
-11 22 -20 27 -20 4 0 146 -77 314 -170 168 -93 310 -170 315 -170 5 0 9 -4 9
-10 0 -5 5 -10 10 -10 6 0 61 -28 123 -63 62 -35 123 -68 137 -75 14 -7 48
-26 75 -42 28 -17 57 -33 65 -37 8 -3 21 -11 29 -17 7 -5 20 -11 28 -12 8 -2
22 -9 31 -17 10 -8 58 -36 107 -62 50 -27 106 -58 125 -70 19 -12 50 -27 68
-34 17 -8 32 -16 32 -20 0 -4 16 -13 35 -20 19 -7 35 -17 35 -22 0 -5 9 -9 20
-9 11 0 20 -4 20 -9 0 -5 8 -12 18 -15 10 -4 88 -45 173 -92 85 -48 177 -99
204 -113 28 -14 52 -29 53 -33 2 -5 12 -8 22 -8 10 0 20 -4 22 -8 3 -7 81 -52
183 -106 22 -12 42 -24 43 -28 2 -5 8 -8 14 -8 6 0 45 -20 87 -44 42 -24 108
-60 146 -81 39 -21 84 -47 100 -56 17 -10 46 -26 65 -36 19 -9 38 -22 42 -27
4 -6 8 -7 8 -3 0 5 12 0 28 -11 15 -10 52 -32 82 -49 30 -16 91 -49 135 -73
44 -24 92 -52 108 -62 15 -11 27 -17 27 -14 0 3 16 -6 36 -19 20 -14 43 -25
50 -25 8 0 14 -3 14 -8 0 -4 15 -13 33 -21 17 -8 44 -23 59 -33 26 -18 27 -18
21 -1 -3 10 -9 23 -13 28 -4 6 -28 48 -53 95 -24 47 -56 105 -70 130 -46 84
-110 205 -126 238 -8 17 -19 32 -23 32 -4 0 -8 7 -8 16 0 9 -8 28 -18 42 -11
15 -26 41 -34 57 -8 17 -24 46 -35 65 -11 19 -36 65 -56 102 -53 98 -59 110
-83 148 -20 33 -184 321 -208 365 -6 11 -16 27 -22 35 -6 8 -22 35 -35 60 -13
25 -28 49 -32 55 -4 5 -55 91 -114 190 -58 99 -110 183 -116 186 -5 3 -8 8 -6
10 1 2 -10 23 -25 47 -15 24 -32 54 -38 68 -6 13 -15 24 -20 24 -4 0 -8 4 -8
10 0 8 -82 146 -159 265 -14 22 -25 42 -26 45 0 3 -10 19 -23 37 -12 17 -22
36 -22 41 0 6 -4 12 -8 14 -8 3 -57 80 -119 186 -12 20 -25 42 -30 47 -5 6
-39 60 -76 120 -36 61 -91 148 -122 195 -30 47 -60 96 -67 110 -7 14 -21 37
-33 52 -11 14 -38 56 -60 93 -22 36 -82 131 -132 211 -51 80 -93 149 -93 155
0 5 -7 12 -15 15 -8 4 -15 11 -15 16 0 6 -18 37 -40 70 -22 33 -40 62 -40 64
0 2 -17 30 -39 62 -49 73 -114 174 -121 187 -3 6 -31 49 -62 97 -32 48 -58 92
-58 98 0 5 -3 10 -7 10 -5 0 -24 27 -43 60 -19 33 -38 60 -42 60 -5 0 -8 4 -8
9 0 5 -54 90 -120 190 -66 100 -120 186 -120 190 0 5 -4 11 -8 13 -4 2 -80
111 -169 243 -215 322 -267 399 -273 405 -3 3 -25 35 -50 73 -44 67 -49 73
-51 60z"/>
<path d="M3495 2525 c-16 -9 -57 -30 -90 -48 -33 -18 -109 -59 -170 -92 -60
-32 -114 -61 -120 -65 -5 -4 -46 -26 -90 -49 -44 -23 -107 -57 -140 -75 -33
-18 -96 -52 -140 -76 -44 -24 -109 -58 -144 -77 -35 -18 -70 -38 -78 -44 -7
-6 -13 -8 -13 -3 0 5 -4 4 -8 -1 -4 -6 -29 -22 -57 -36 -27 -14 -99 -53 -160
-86 -60 -33 -146 -79 -190 -103 -44 -24 -86 -47 -92 -53 -7 -5 -13 -6 -13 -1
0 5 -4 4 -8 -1 -4 -6 -32 -23 -62 -39 -53 -28 -108 -58 -215 -116 -91 -50
-209 -113 -265 -142 -30 -16 -73 -39 -95 -52 -22 -12 -78 -42 -125 -66 -47
-25 -87 -47 -90 -50 -3 -3 -39 -22 -80 -44 -73 -37 -151 -79 -295 -158 -38
-21 -82 -43 -97 -49 -16 -6 -28 -15 -28 -20 0 -5 -7 -9 -15 -9 -9 0 -32 -10
-53 -23 -20 -13 -82 -47 -137 -77 -229 -121 -234 -124 -211 -133 8 -3 18 -2
21 4 4 5 10 7 14 5 10 -7 981 -30 1056 -26 17 1 35 2 40 1 218 -14 3830 -21
4385 -8 468 11 702 17 870 21 80 3 169 5 198 5 28 1 52 4 52 9 0 4 -31 22 -68
40 -37 18 -96 49 -132 69 -36 20 -94 52 -130 71 -111 58 -124 66 -142 81 -10
8 -18 11 -18 7 0 -4 -12 1 -27 11 -16 10 -50 31 -78 45 -27 15 -84 45 -125 68
-41 22 -91 49 -110 58 -19 9 -37 19 -40 22 -3 3 -30 18 -60 34 -59 31 -149 79
-245 132 -33 18 -94 50 -135 71 -41 21 -81 43 -88 50 -6 6 -22 15 -35 19 -12
4 -38 17 -57 29 -19 12 -75 43 -125 69 -116 61 -204 109 -285 154 -36 20 -68
35 -72 34 -5 -1 -8 3 -8 8 0 6 -4 10 -8 10 -8 0 -57 26 -259 136 -35 19 -93
50 -130 71 -38 20 -93 50 -123 66 -30 17 -84 46 -120 65 -36 18 -83 44 -105
56 -71 39 -168 92 -250 136 -44 24 -98 53 -120 65 -146 80 -214 115 -221 115
-5 -1 -22 -7 -39 -15z"/>
</g>
</svg>
