<?xml version="1.0" standalone="no"?>
<!DOCTYPE svg PUBLIC "-//W3C//DTD SVG 20010904//EN"
 "http://www.w3.org/TR/2001/REC-SVG-20010904/DTD/svg10.dtd">
<svg version="1.0" xmlns="http://www.w3.org/2000/svg"
 width="1104.000000pt" height="1104.000000pt" viewBox="0 0 1104.000000 1104.000000"
 preserveAspectRatio="xMidYMid meet">
<metadata>
Created by potrace 1.14, written by Peter Selinger 2001-2017
</metadata>
<g transform="translate(0.000000,1104.000000) scale(0.100000,-0.100000)"
fill="#000000" stroke="none">
<path d="M11000 9489 c-14 -11 -32 -26 -40 -32 -45 -36 -272 -175 -300 -183
-34 -10 -50 -18 -50 -24 0 -4 -10 -10 -22 -13 -13 -3 -57 -19 -98 -37 -71 -30
-238 -89 -270 -95 -8 -2 -15 -4 -15 -5 0 -1 -7 -3 -15 -5 -8 -2 -58 -16 -110
-30 -52 -15 -104 -28 -115 -30 -11 -1 -40 -7 -65 -13 -25 -6 -61 -14 -80 -17
-19 -3 -42 -8 -50 -10 -8 -2 -31 -6 -50 -9 -19 -3 -46 -8 -60 -11 -14 -2 -41
-7 -60 -9 -19 -3 -51 -8 -70 -11 -19 -3 -53 -8 -75 -10 -22 -2 -56 -7 -75 -9
-92 -14 -128 -18 -305 -31 -44 -3 -100 -8 -125 -10 -222 -20 -1176 -25 -2170
-11 -993 14 -2219 10 -2370 -9 -19 -2 -73 -6 -119 -10 -47 -3 -98 -7 -115 -10
-28 -3 -71 -9 -161 -21 -16 -2 -52 -6 -79 -9 -27 -3 -51 -7 -55 -9 -4 -3 -27
-7 -51 -11 -71 -10 -304 -63 -399 -90 -47 -14 -94 -27 -104 -30 -24 -5 -183
-63 -227 -83 -382 -165 -601 -326 -835 -613 -31 -38 -116 -166 -131 -199 -4
-8 -10 -17 -13 -20 -12 -11 -201 -401 -205 -425 -1 -5 -7 -19 -13 -30 -5 -11
-29 -69 -52 -130 -23 -60 -46 -119 -51 -130 -9 -20 -59 -170 -60 -178 0 -1
-15 -47 -33 -102 -54 -158 -55 -170 -8 -100 38 56 195 215 212 215 4 0 14 6
21 14 8 7 32 23 54 35 21 12 64 36 94 52 105 58 394 170 467 182 10 1 23 5 28
9 6 3 44 13 85 22 41 9 84 19 95 21 70 17 155 35 185 40 20 3 47 8 60 11 28 6
47 9 110 18 25 4 56 9 70 11 62 11 155 24 210 29 25 3 66 7 91 10 26 4 75 9
110 11 35 3 84 7 109 9 247 20 342 25 622 30 126 3 232 7 237 11 5 3 12 2 14
-2 6 -10 3283 -8 3477 1 74 3 160 8 190 11 204 16 298 25 330 30 14 2 54 6 90
10 36 3 72 8 80 10 8 2 33 7 55 10 23 3 52 7 65 10 13 3 40 7 60 10 20 3 47 8
60 10 14 3 39 8 55 11 17 3 50 10 75 15 25 6 53 12 62 14 48 10 250 67 303 85
33 11 65 22 70 23 11 3 98 35 130 47 169 67 452 230 565 326 185 157 365 386
452 574 58 126 71 156 71 168 0 6 4 12 8 12 3 0 9 10 12 23 3 12 26 81 52 152
26 72 48 135 49 140 13 52 20 72 29 83 5 6 7 12 3 12 -3 0 0 17 8 38 8 20 27
71 41 112 15 41 36 95 47 118 11 24 18 45 16 47 -2 2 -14 -6 -28 -16z"/>
<path d="M10179 6964 c-13 -16 -28 -26 -148 -106 -80 -53 -362 -192 -431 -213
-14 -4 -38 -13 -55 -20 -64 -28 -364 -112 -458 -129 -15 -2 -35 -7 -45 -10 -9
-3 -34 -7 -56 -11 -21 -3 -41 -7 -45 -10 -4 -2 -30 -7 -57 -11 -27 -3 -58 -8
-69 -11 -11 -2 -33 -6 -50 -8 -16 -2 -64 -8 -105 -14 -41 -6 -95 -14 -120 -17
-25 -3 -58 -7 -75 -9 -16 -2 -64 -6 -105 -10 -41 -3 -97 -8 -125 -11 -77 -7
-194 -14 -370 -22 -287 -13 -2171 -2 -2194 13 -5 3 -12 1 -15 -4 -3 -5 -21 -6
-38 -2 -18 4 -45 4 -60 0 -16 -4 -28 -4 -28 -1 0 8 -1610 6 -1790 -2 -69 -3
-147 -8 -175 -10 -27 -3 -81 -8 -120 -12 -38 -3 -88 -7 -110 -9 -22 -2 -56 -6
-75 -9 -93 -14 -118 -18 -150 -22 -19 -2 -46 -6 -60 -9 -14 -3 -41 -7 -60 -10
-70 -12 -316 -66 -335 -75 -11 -4 -33 -12 -50 -16 -16 -4 -34 -8 -40 -10 -53
-13 -206 -68 -211 -75 -3 -5 -10 -7 -15 -3 -5 3 -15 1 -22 -4 -7 -5 -23 -13
-35 -17 -103 -31 -393 -194 -507 -284 -88 -69 -255 -225 -255 -237 0 -2 -8
-12 -17 -22 -59 -61 -165 -215 -208 -299 -14 -29 -30 -55 -35 -58 -6 -3 -10
-14 -10 -24 0 -9 -6 -23 -12 -30 -7 -6 -13 -15 -14 -19 0 -4 -25 -59 -55 -122
-50 -104 -121 -270 -154 -360 -7 -19 -17 -44 -21 -55 -4 -11 -8 -22 -9 -25 -1
-3 -5 -12 -8 -20 -16 -35 -115 -340 -111 -340 2 0 -3 -14 -11 -30 -9 -17 -13
-35 -10 -39 3 -5 -1 -12 -7 -14 -10 -4 -10 -6 -1 -6 7 -1 19 14 28 31 14 30
33 56 83 113 29 34 145 130 187 156 72 44 80 48 105 59 13 6 27 14 30 18 4 7
205 96 220 98 3 0 12 4 20 7 28 12 105 38 125 42 11 3 31 9 45 15 27 10 244
65 295 74 17 3 41 8 55 11 14 3 36 8 50 11 20 4 63 13 90 19 3 1 34 5 70 10
36 5 67 9 70 10 16 4 119 19 140 21 14 1 25 3 25 4 0 1 16 3 35 5 19 2 53 6
75 9 63 8 124 15 210 21 44 4 96 8 115 10 19 2 87 7 150 11 63 3 138 8 165 11
28 2 916 6 1975 8 1059 2 1963 6 2010 9 247 14 297 18 435 32 115 11 139 14
219 24 127 17 150 21 166 25 19 5 101 17 118 18 6 0 12 3 12 6 0 3 17 7 38 8
42 3 364 83 430 107 24 9 51 18 60 20 9 1 26 7 37 11 52 21 121 47 130 50 39
9 273 126 348 173 96 62 188 130 261 195 62 55 93 86 161 161 35 38 139 183
168 233 26 45 128 254 146 298 27 66 68 181 116 330 31 94 58 177 62 185 3 8
7 22 9 30 2 8 21 57 43 108 37 87 41 113 10 76z"/>
<path d="M9325 4399 c-33 -27 -63 -48 -66 -49 -4 0 -33 -18 -65 -39 -53 -35
-181 -103 -274 -144 -94 -42 -296 -116 -327 -118 -5 -1 -24 -7 -43 -15 -30
-11 -182 -51 -260 -68 -105 -23 -129 -28 -159 -32 -19 -2 -37 -7 -41 -9 -5 -3
-28 -7 -52 -10 -23 -2 -54 -7 -68 -10 -14 -3 -43 -7 -65 -10 -22 -2 -49 -6
-61 -9 -27 -6 -113 -15 -274 -31 -206 -21 -350 -30 -650 -40 -206 -8 -1354 -3
-1526 6 -28 1 -55 -1 -62 -4 -6 -4 -13 -4 -15 1 -6 9 -2407 9 -2524 -1 -45 -3
-106 -9 -135 -12 -29 -3 -80 -8 -113 -10 -33 -3 -71 -7 -84 -10 -13 -2 -49 -7
-80 -10 -31 -3 -76 -10 -101 -15 -25 -5 -63 -11 -85 -14 -43 -6 -76 -12 -103
-20 -9 -3 -34 -7 -56 -11 -21 -3 -42 -7 -46 -10 -3 -2 -22 -7 -40 -10 -35 -6
-214 -53 -240 -63 -8 -3 -18 -6 -22 -6 -3 -1 -10 -4 -14 -8 -4 -5 -15 -8 -24
-8 -51 0 -402 -157 -534 -239 -182 -112 -380 -288 -496 -441 -19 -25 -38 -46
-42 -48 -5 -2 -8 -8 -8 -13 0 -6 -17 -36 -39 -67 -21 -31 -56 -91 -77 -132
-21 -41 -42 -76 -46 -78 -5 -2 -8 -8 -8 -13 0 -5 -21 -53 -46 -106 -75 -159
-198 -451 -199 -475 0 -3 -3 -10 -8 -14 -4 -4 -7 -13 -7 -20 0 -7 -5 -25 -12
-41 -6 -15 -13 -36 -15 -46 -1 -10 -10 -31 -18 -48 -9 -16 -13 -29 -10 -29 3
0 -2 -16 -10 -37 -8 -20 -18 -50 -21 -67 -3 -17 -10 -34 -17 -38 -7 -4 -9 -8
-5 -8 3 0 0 -21 -8 -46 -12 -41 -12 -45 1 -34 8 7 15 17 15 22 0 15 61 89 125
150 147 142 416 279 705 359 25 7 50 14 55 15 97 27 142 38 265 63 163 34 186
38 250 47 25 3 48 8 52 10 3 2 30 7 60 9 29 3 64 8 78 10 43 7 103 15 155 20
28 3 70 7 95 10 25 3 74 7 110 10 36 3 97 7 135 10 39 3 98 8 132 10 35 2 68
7 75 11 7 5 8 3 3 -6 -5 -9 -4 -11 3 -6 18 11 253 17 582 16 1177 -4 3273 -1
3400 4 280 12 466 26 670 52 30 4 67 8 83 8 15 1 27 5 27 9 0 5 4 6 9 3 5 -3
33 -1 62 4 30 5 68 12 84 14 69 11 102 18 145 27 25 6 56 13 70 15 14 3 33 7
42 10 9 3 25 6 35 8 10 2 47 12 83 21 36 9 70 18 75 20 6 1 17 4 25 7 8 4 67
23 130 43 63 20 129 42 145 50 17 7 56 24 87 38 31 14 59 23 62 19 3 -3 6 0 6
6 0 7 9 12 20 12 11 0 20 3 20 8 0 4 15 13 33 21 47 21 171 93 175 103 2 4 9
8 14 8 6 0 35 18 64 40 30 22 55 40 56 39 6 -4 89 72 183 167 104 104 211 245
261 343 16 31 32 58 36 61 3 3 25 48 47 100 23 52 46 104 51 115 22 46 49 125
44 125 -4 0 -2 6 3 13 6 6 20 44 32 82 13 39 25 77 28 85 4 8 7 17 7 20 1 3 4
10 7 15 4 6 10 26 14 45 4 19 12 41 17 48 6 6 8 12 4 12 -6 0 13 56 40 117 8
17 14 36 14 42 0 6 13 39 30 73 16 34 29 62 27 63 -1 2 -29 -19 -62 -46z"/>
</g>
</svg>
