<svg width="40" height="40" viewBox="0 0 40 40" fill="none" xmlns="http://www.w3.org/2000/svg">
<path d="M21.6667 36.5847C21.1185 36.6391 20.5625 36.667 20 36.667C19.4375 36.667 18.8815 36.6391 18.3333 36.5847V23.3337H16.6667C15.7462 23.3337 15 22.5875 15 21.667C15 20.7465 15.7462 20.0003 16.6667 20.0003H18.3333V16.667C18.3333 13.9056 20.5719 11.667 23.3333 11.667H25C25.9205 11.667 26.6667 12.4132 26.6667 13.3337C26.6667 14.2541 25.9205 15.0003 25 15.0003H23.3333C22.4129 15.0003 21.6667 15.7465 21.6667 16.667V20.0003H25C25.9205 20.0003 26.6667 20.7465 26.6667 21.667C26.6667 22.5875 25.9205 23.3337 25 23.3337H21.6667V36.5847Z" fill="white"/>
<path fill-rule="evenodd" clip-rule="evenodd" d="M20.0007 33.333C27.3644 33.333 33.334 27.3635 33.334 19.9997C33.334 12.6359 27.3644 6.66634 20.0007 6.66634C12.6369 6.66634 6.66732 12.6359 6.66732 19.9997C6.66732 27.3635 12.6369 33.333 20.0007 33.333ZM20.0007 36.6663C29.2054 36.6663 36.6673 29.2044 36.6673 19.9997C36.6673 10.7949 29.2054 3.33301 20.0007 3.33301C10.7959 3.33301 3.33398 10.7949 3.33398 19.9997C3.33398 29.2044 10.7959 36.6663 20.0007 36.6663Z" fill="white"/>
</svg>
