<svg width="40" height="40" viewBox="0 0 40 40" fill="none" xmlns="http://www.w3.org/2000/svg">
<path fill-rule="evenodd" clip-rule="evenodd" d="M5 13.3333C5 8.73096 8.73096 5 13.3333 5H26.6667C31.269 5 35 8.73096 35 13.3333V26.6667C35 31.269 31.269 35 26.6667 35H13.3333C8.73096 35 5 31.269 5 26.6667V13.3333ZM13.3333 8.33333C10.5719 8.33333 8.33333 10.5719 8.33333 13.3333V26.6667C8.33333 29.4281 10.5719 31.6667 13.3333 31.6667H26.6667C29.4281 31.6667 31.6667 29.4281 31.6667 26.6667V13.3333C31.6667 10.5719 29.4281 8.33333 26.6667 8.33333H13.3333Z" fill="white"/>
<path fill-rule="evenodd" clip-rule="evenodd" d="M27.5007 14.1663C28.4211 14.1663 29.1673 13.4201 29.1673 12.4997C29.1673 11.5792 28.4211 10.833 27.5007 10.833C26.5802 10.833 25.834 11.5792 25.834 12.4997C25.834 13.4201 26.5802 14.1663 27.5007 14.1663ZM16.6673 19.9997C16.6673 18.1587 18.1597 16.6663 20.0007 16.6663C21.8416 16.6663 23.334 18.1587 23.334 19.9997C23.334 21.8406 21.8416 23.333 20.0007 23.333C18.1597 23.333 16.6673 21.8406 16.6673 19.9997ZM20.0007 13.333C16.3188 13.333 13.334 16.3178 13.334 19.9997C13.334 23.6816 16.3188 26.6663 20.0007 26.6663C23.6825 26.6663 26.6673 23.6816 26.6673 19.9997C26.6673 16.3178 23.6825 13.333 20.0007 13.333Z" fill="white"/>
</svg>
