<svg width="31" height="31" viewBox="0 0 31 31" fill="none" xmlns="http://www.w3.org/2000/svg">
<path fill-rule="evenodd" clip-rule="evenodd" d="M7.37103 18.9967C7.87545 18.4923 7.87545 17.6744 7.37103 17.17L6.99271 16.7917L27.1243 16.7917C27.8377 16.7917 28.416 16.2134 28.416 15.5C28.416 14.7866 27.8377 14.2083 27.1243 14.2083L6.99271 14.2083L7.37103 13.83C7.87545 13.3256 7.87545 12.5077 7.37103 12.0033C6.8666 11.4989 6.04876 11.4989 5.54434 12.0033L2.961 14.5867C2.45658 15.0911 2.45658 15.9089 2.961 16.4133L5.54434 18.9967C6.04876 19.5011 6.8666 19.5011 7.37103 18.9967Z" fill="url(#paint0_linear_67_360)"/>
<defs>
<linearGradient id="paint0_linear_67_360" x1="15.4994" y1="19.375" x2="15.4993" y2="-7.67092" gradientUnits="userSpaceOnUse">
<stop stop-color="#011B50"/>
<stop offset="1" stop-color="#011B50" stop-opacity="0"/>
</linearGradient>
</defs>
</svg>
