<svg width="28" height="8" viewBox="0 0 28 8" fill="none" xmlns="http://www.w3.org/2000/svg">
<path fill-rule="evenodd" clip-rule="evenodd" d="M22.3899 0.390524C21.8692 0.911223 21.8692 1.75544 22.3899 2.27614L22.7804 2.66667L1.99935 2.66667C1.26297 2.66667 0.666016 3.26362 0.666016 4C0.666016 4.73638 1.26297 5.33333 1.99935 5.33333L22.7804 5.33333L22.3899 5.72386C21.8692 6.24456 21.8692 7.08878 22.3899 7.60948C22.9106 8.13017 23.7548 8.13017 24.2755 7.60948L26.9422 4.94281C27.4629 4.42211 27.4629 3.57789 26.9422 3.05719L24.2755 0.390524C23.7548 -0.130175 22.9106 -0.130175 22.3899 0.390524Z" fill="url(#paint0_linear_478_163)"/>
<defs>
<linearGradient id="paint0_linear_478_163" x1="13.9993" y1="0" x2="13.9993" y2="27.9184" gradientUnits="userSpaceOnUse">
<stop stop-color="#011B50"/>
<stop offset="1" stop-color="#011B50" stop-opacity="0"/>
</linearGradient>
</defs>
</svg>
