<svg width="79" height="8" viewBox="0 0 79 8" fill="none" xmlns="http://www.w3.org/2000/svg">
<path d="M76.2588 1.83026C74.7556 2.82298 73.0058 3.37271 71.2076 3.41711C69.4093 3.46152 67.6347 2.99883 66.0849 2.0815L63.7875 0.715355C63.491 0.533634 63.1503 0.4375 62.803 0.4375C62.4556 0.4375 62.115 0.533634 61.8184 0.715355L60.1306 1.76745C58.5625 2.74876 56.7475 3.25841 54.9003 3.23615C53.0531 3.21388 51.2508 2.66064 49.7066 1.64182L48.6283 0.888087C48.4335 0.735453 48.2103 0.623351 47.9719 0.558327C47.8783 0.550812 47.7842 0.550812 47.6906 0.558327C47.5352 0.534639 47.3772 0.534639 47.2218 0.558327H47.0655C46.8075 0.585976 46.5605 0.677718 46.3466 0.825276L44.7838 1.83026C43.2762 2.82362 41.5233 3.37614 39.7211 3.42606C37.9189 3.47597 36.1384 3.02132 34.5786 2.11291L32.2969 0.762465C32.1112 0.659379 31.911 0.585252 31.7031 0.542624H31.4374C31.2558 0.518776 31.072 0.518776 30.8904 0.542624H30.8123C30.6325 0.595749 30.4595 0.669516 30.2965 0.762465L28.6087 1.81455C27.0437 2.79635 25.2311 3.30638 23.3862 3.28411C21.5413 3.26185 19.7415 2.70822 18.2004 1.68893L16.8564 0.79387C16.5461 0.586583 16.1819 0.475999 15.8093 0.475999C15.4367 0.475999 15.0725 0.586583 14.7622 0.79387L13.1994 1.79885C11.6948 2.79256 9.94445 3.34538 8.14463 3.39531C6.34481 3.44524 4.56674 2.99029 3.00989 2.0815C2.79605 1.9238 2.55159 1.81307 2.29238 1.7565C2.03318 1.69993 1.76502 1.69878 1.50535 1.75314C1.24567 1.80749 1.00028 1.91613 0.785118 2.07199C0.569955 2.22786 0.389833 2.42746 0.256455 2.65784C0.123077 2.88821 0.0394267 3.1442 0.0109383 3.40918C-0.0175501 3.67416 0.00976092 3.9422 0.0910971 4.19588C0.172433 4.44956 0.305975 4.68321 0.483046 4.88165C0.660117 5.08008 0.876757 5.23887 1.11889 5.34769C3.28818 6.61616 5.7661 7.25276 8.27512 7.1862C10.7841 7.11963 13.2252 6.35254 15.3248 4.97083L15.8093 4.65677L16.1062 4.86091C18.2549 6.28405 20.7647 7.05822 23.338 7.09162C25.9113 7.12502 28.4402 6.41624 30.6247 5.04934L31.328 4.60966L32.6564 5.3791C34.714 6.60494 37.0625 7.25049 39.4546 7.24774C42.0705 7.24606 44.6289 6.4765 46.8154 5.03364L47.3468 4.67247L47.6281 4.86091C49.7737 6.28452 52.281 7.05908 54.852 7.09249C57.423 7.12589 59.9494 6.41674 62.131 5.04934L62.8498 4.65677L64.1782 5.42621C66.2358 6.65205 68.5844 7.2976 70.9765 7.29485C73.5934 7.27148 76.1465 6.48006 78.3217 5.01793C78.6718 4.71589 78.9 4.29562 78.9631 3.83628C79.0263 3.37694 78.9201 2.91025 78.6645 2.52413C78.409 2.13801 78.0217 1.85911 77.5757 1.73998C77.1297 1.62086 76.6558 1.66972 76.2431 1.87736L76.2588 1.83026Z" fill="#E39E5F"/>
</svg>
