<svg width="7" height="80" viewBox="0 0 7 80" fill="none" xmlns="http://www.w3.org/2000/svg">
<path d="M1.39007 3.25628C2.38088 4.76231 2.92955 6.51554 2.97387 8.31722C3.0182 10.1189 2.5564 11.897 1.64083 13.4498L0.277317 15.7515C0.0959457 16.0487 -2.76039e-06 16.39 -2.7452e-06 16.738C-2.73002e-06 17.086 0.0959458 17.4274 0.277318 17.7245L1.32738 19.4156C2.3068 20.9867 2.81547 22.8051 2.79326 24.6559C2.77104 26.5067 2.21886 28.3124 1.202 29.8596L0.449718 30.94C0.297378 31.1352 0.185492 31.3588 0.120593 31.5977C0.113091 31.6915 0.113091 31.7857 0.120593 31.8795C0.0969502 32.0352 0.0969502 32.1936 0.120593 32.3493L0.120593 32.5059C0.148188 32.7643 0.239753 33.0119 0.387028 33.2261L1.39007 34.792C2.38153 36.3025 2.93298 38.0587 2.9828 39.8644C3.03262 41.6701 2.57884 43.454 1.67218 45.0168L0.324338 47.3029C0.22145 47.489 0.147466 47.6896 0.104921 47.8979L0.104921 48.1641C0.0811177 48.346 0.0811178 48.5302 0.104921 48.7121L0.104921 48.7904C0.157943 48.9705 0.231569 49.1439 0.324338 49.3071L1.3744 50.9982C2.35431 52.5663 2.86336 54.3823 2.84113 56.2308C2.81891 58.0792 2.26635 59.8825 1.24902 61.4266L0.355683 62.7732C0.148795 63.0841 0.0384239 63.449 0.038424 63.8223C0.038424 64.1956 0.148795 64.5606 0.355683 64.8714L1.35873 66.4372C2.35053 67.9447 2.90229 69.6985 2.95212 71.5018C3.00195 73.3051 2.54787 75.0866 1.64084 76.6464C1.48344 76.8607 1.37293 77.1056 1.31646 77.3653C1.26 77.625 1.25886 77.8937 1.31311 78.1539C1.36736 78.414 1.47578 78.6599 1.63135 78.8755C1.78691 79.0911 1.98613 79.2715 2.21606 79.4052C2.44599 79.5388 2.70149 79.6226 2.96596 79.6511C3.23043 79.6797 3.49795 79.6523 3.75114 79.5708C4.00433 79.4893 4.23753 79.3555 4.43559 79.1781C4.63365 79.0007 4.79213 78.7837 4.90074 78.5411C6.16676 76.3676 6.80214 73.8849 6.73571 71.371C6.66927 68.8572 5.90365 66.4114 4.5246 64.3077L4.21115 63.8223L4.41489 63.5248C5.83529 61.372 6.60797 58.8573 6.64131 56.2791C6.67464 53.7008 5.96723 51.1671 4.60296 48.9783L4.16413 48.2737L4.93209 46.9427C6.15557 44.8812 6.79988 42.5281 6.79713 40.1314C6.79545 37.5105 6.02738 34.9471 4.58729 32.7564L4.22682 32.224L4.41489 31.9422C5.83577 29.7924 6.60883 27.2802 6.64217 24.7043C6.67551 22.1284 5.96772 19.597 4.60296 17.4113L4.21114 16.691L4.9791 15.3601C6.20259 13.2985 6.84689 10.9455 6.84414 8.54876C6.82082 5.92677 6.03092 3.36877 4.57161 1.18939C4.27015 0.838547 3.85069 0.609955 3.39223 0.546676C2.93378 0.483398 2.46798 0.589813 2.08261 0.845856C1.69723 1.1019 1.41887 1.4899 1.29997 1.93676C1.18107 2.38363 1.22984 2.85851 1.43709 3.27194L1.39007 3.25628Z" fill="#E39E5F"/>
</svg>
